<svg xmlns="http://www.w3.org/2000/svg" viewBox="0 0 1200 630" font-family="system-ui, -apple-system, 'Segoe UI', sans-serif">
  <!-- Background -->
  <defs>
    <linearGradient id="bg" x1="0" y1="0" x2="1200" y2="630" gradientUnits="userSpaceOnUse">
      <stop offset="0%" stop-color="#0f172a"/>
      <stop offset="100%" stop-color="#1e1b4b"/>
    </linearGradient>
    <linearGradient id="accent" x1="0" y1="0" x2="300" y2="0" gradientUnits="userSpaceOnUse">
      <stop offset="0%" stop-color="#818cf8"/>
      <stop offset="100%" stop-color="#6366f1"/>
    </linearGradient>
  </defs>
  <rect width="1200" height="630" fill="url(#bg)"/>

  <!-- Subtle grid pattern -->
  <g opacity="0.04" stroke="white" stroke-width="1">
    <line x1="0" y1="0" x2="1200" y2="630"/>
    <line x1="400" y1="0" x2="400" y2="630"/>
    <line x1="800" y1="0" x2="800" y2="630"/>
    <line x1="0" y1="210" x2="1200" y2="210"/>
    <line x1="0" y1="420" x2="1200" y2="420"/>
  </g>

  <!-- 7·7·3 badge -->
  <rect x="80" y="80" width="90" height="36" rx="18" fill="#6366f1" opacity="0.2"/>
  <rect x="80" y="80" width="90" height="36" rx="18" fill="none" stroke="#818cf8" stroke-width="1.5"/>
  <text x="125" y="103" text-anchor="middle" font-size="16" font-weight="700" fill="#a5b4fc" letter-spacing="3">7·7·3</text>

  <!-- Title -->
  <text x="80" y="170" font-size="52" font-weight="800" fill="white" letter-spacing="-1.5">Agent Sandbox</text>
  <text x="80" y="230" font-size="52" font-weight="800" fill="white" letter-spacing="-1.5">Taxonomy</text>

  <!-- Subtitle -->
  <text x="80" y="275" font-size="20" fill="#94a3b8" font-weight="400">Compare AI agent sandboxes across</text>
  <text x="80" y="305" font-size="20" fill="#94a3b8" font-weight="400">7 defense layers · 7 threats · 3 dimensions</text>

  <!-- Stats row -->
  <g transform="translate(80, 360)">
    <rect width="140" height="64" rx="8" fill="white" opacity="0.05"/>
    <rect width="140" height="64" rx="8" fill="none" stroke="white" stroke-width="0.5" opacity="0.1"/>
    <text x="70" y="28" text-anchor="middle" font-size="28" font-weight="800" fill="#34d399">26</text>
    <text x="70" y="50" text-anchor="middle" font-size="12" fill="#94a3b8" font-weight="500">Products Scored</text>

    <rect x="160" width="140" height="64" rx="8" fill="white" opacity="0.05"/>
    <rect x="160" width="140" height="64" rx="8" fill="none" stroke="white" stroke-width="0.5" opacity="0.1"/>
    <text x="230" y="28" text-anchor="middle" font-size="28" font-weight="800" fill="#818cf8">7</text>
    <text x="230" y="50" text-anchor="middle" font-size="12" fill="#94a3b8" font-weight="500">Defense Layers</text>

    <rect x="320" width="140" height="64" rx="8" fill="white" opacity="0.05"/>
    <rect x="320" width="140" height="64" rx="8" fill="none" stroke="white" stroke-width="0.5" opacity="0.1"/>
    <text x="390" y="28" text-anchor="middle" font-size="28" font-weight="800" fill="#fbbf24">7</text>
    <text x="390" y="50" text-anchor="middle" font-size="12" fill="#94a3b8" font-weight="500">Threat Categories</text>
  </g>

  <!-- Right side: mini heatmap visualization -->
  <g transform="translate(680, 80)">
    <!-- Header -->
    <text x="0" y="16" font-size="11" fill="#64748b" font-weight="600" letter-spacing="1.5">SAMPLE FINGERPRINTS</text>

    <!-- Layer headers -->
    <g transform="translate(140, 30)" font-size="10" fill="#64748b" font-weight="600">
      <text x="0" text-anchor="middle">L1</text>
      <text x="52" text-anchor="middle">L2</text>
      <text x="104" text-anchor="middle">L3</text>
      <text x="156" text-anchor="middle">L4</text>
      <text x="208" text-anchor="middle">L5</text>
      <text x="260" text-anchor="middle">L6</text>
      <text x="312" text-anchor="middle">L7</text>
    </g>

    <!-- Row 1 -->
    <g transform="translate(0, 46)">
      <text x="0" y="20" font-size="12" fill="#cbd5e1" font-weight="500">Cloud VM</text>
      <g transform="translate(114, 0)">
        <rect width="42" height="28" rx="4" fill="#059669" opacity="0.2" stroke="#34d399" stroke-width="1"/>
        <text x="21" y="18" text-anchor="middle" font-size="11" font-weight="700" fill="#34d399">4.1</text>
        <rect x="52" width="42" height="28" rx="4" fill="#059669" opacity="0.2" stroke="#34d399" stroke-width="1"/>
        <text x="73" y="18" text-anchor="middle" font-size="11" font-weight="700" fill="#34d399">4.2</text>
        <rect x="104" width="42" height="28" rx="4" fill="#059669" opacity="0.2" stroke="#34d399" stroke-width="1"/>
        <text x="125" y="18" text-anchor="middle" font-size="11" font-weight="700" fill="#34d399">4.1</text>
        <rect x="156" width="42" height="28" rx="4" fill="#fbbf24" opacity="0.15" stroke="#fbbf24" stroke-width="1"/>
        <text x="177" y="18" text-anchor="middle" font-size="11" font-weight="700" fill="#fbbf24">1.1</text>
        <rect x="208" width="42" height="28" rx="4" fill="#fbbf24" opacity="0.15" stroke="#fbbf24" stroke-width="1"/>
        <text x="229" y="18" text-anchor="middle" font-size="11" font-weight="700" fill="#fbbf24">1.1</text>
        <rect x="260" width="42" height="28" rx="4" fill="#6b7280" opacity="0.15" stroke="#6b7280" stroke-width="1"/>
        <text x="281" y="18" text-anchor="middle" font-size="11" font-weight="700" fill="#6b7280">—</text>
        <rect x="312" width="42" height="28" rx="4" fill="#fbbf24" opacity="0.15" stroke="#fbbf24" stroke-width="1"/>
        <text x="333" y="18" text-anchor="middle" font-size="11" font-weight="700" fill="#fbbf24">1.1</text>
      </g>
    </g>

    <!-- Row 2 -->
    <g transform="translate(0, 82)">
      <text x="0" y="20" font-size="12" fill="#cbd5e1" font-weight="500">Policy Tool</text>
      <g transform="translate(114, 0)">
        <rect width="42" height="28" rx="4" fill="#3b82f6" opacity="0.15" stroke="#60a5fa" stroke-width="1"/>
        <text x="21" y="18" text-anchor="middle" font-size="11" font-weight="700" fill="#60a5fa">2.1</text>
        <rect x="52" width="42" height="28" rx="4" fill="#6b7280" opacity="0.15" stroke="#6b7280" stroke-width="1"/>
        <text x="73" y="18" text-anchor="middle" font-size="11" font-weight="700" fill="#6b7280">—</text>
        <rect x="104" width="42" height="28" rx="4" fill="#3b82f6" opacity="0.15" stroke="#60a5fa" stroke-width="1"/>
        <text x="125" y="18" text-anchor="middle" font-size="11" font-weight="700" fill="#60a5fa">2.2</text>
        <rect x="156" width="42" height="28" rx="4" fill="#3b82f6" opacity="0.15" stroke="#60a5fa" stroke-width="1"/>
        <text x="177" y="18" text-anchor="middle" font-size="11" font-weight="700" fill="#60a5fa">2.3</text>
        <rect x="208" width="42" height="28" rx="4" fill="#7c3aed" opacity="0.15" stroke="#a78bfa" stroke-width="1"/>
        <text x="229" y="18" text-anchor="middle" font-size="11" font-weight="700" fill="#a78bfa">3.3</text>
        <rect x="260" width="42" height="28" rx="4" fill="#3b82f6" opacity="0.15" stroke="#60a5fa" stroke-width="1"/>
        <text x="281" y="18" text-anchor="middle" font-size="11" font-weight="700" fill="#60a5fa">2.3</text>
        <rect x="312" width="42" height="28" rx="4" fill="#7c3aed" opacity="0.15" stroke="#a78bfa" stroke-width="1"/>
        <text x="333" y="18" text-anchor="middle" font-size="11" font-weight="700" fill="#a78bfa">3.3</text>
      </g>
    </g>

    <!-- Divider -->
    <line x1="114" y1="118" x2="470" y2="118" stroke="#475569" stroke-width="1" stroke-dasharray="4,4"/>

    <!-- Composed row -->
    <g transform="translate(0, 126)">
      <text x="0" y="20" font-size="12" fill="#34d399" font-weight="700">✦ Composed</text>
      <g transform="translate(114, 0)">
        <rect width="42" height="28" rx="4" fill="#059669" opacity="0.25" stroke="#34d399" stroke-width="1.5"/>
        <text x="21" y="18" text-anchor="middle" font-size="11" font-weight="700" fill="#34d399">4.1</text>
        <rect x="52" width="42" height="28" rx="4" fill="#059669" opacity="0.25" stroke="#34d399" stroke-width="1.5"/>
        <text x="73" y="18" text-anchor="middle" font-size="11" font-weight="700" fill="#34d399">4.2</text>
        <rect x="104" width="42" height="28" rx="4" fill="#059669" opacity="0.25" stroke="#34d399" stroke-width="1.5"/>
        <text x="125" y="18" text-anchor="middle" font-size="11" font-weight="700" fill="#34d399">4.2</text>
        <rect x="156" width="42" height="28" rx="4" fill="#3b82f6" opacity="0.2" stroke="#60a5fa" stroke-width="1.5"/>
        <text x="177" y="18" text-anchor="middle" font-size="11" font-weight="700" fill="#60a5fa">2.3</text>
        <rect x="208" width="42" height="28" rx="4" fill="#7c3aed" opacity="0.2" stroke="#a78bfa" stroke-width="1.5"/>
        <text x="229" y="18" text-anchor="middle" font-size="11" font-weight="700" fill="#a78bfa">3.3</text>
        <rect x="260" width="42" height="28" rx="4" fill="#3b82f6" opacity="0.2" stroke="#60a5fa" stroke-width="1.5"/>
        <text x="281" y="18" text-anchor="middle" font-size="11" font-weight="700" fill="#60a5fa">2.3</text>
        <rect x="312" width="42" height="28" rx="4" fill="#7c3aed" opacity="0.2" stroke="#a78bfa" stroke-width="1.5"/>
        <text x="333" y="18" text-anchor="middle" font-size="11" font-weight="700" fill="#a78bfa">3.3</text>
      </g>
    </g>

    <!-- Strength legend -->
    <g transform="translate(0, 190)" font-size="10">
      <text x="0" y="12" fill="#64748b" font-weight="600" letter-spacing="1">STRENGTH</text>
      <rect x="0" y="22" width="12" height="12" rx="2" fill="#fca5a5" opacity="0.3" stroke="#fca5a5" stroke-width="1"/>
      <text x="18" y="32" fill="#94a3b8">0 None</text>
      <rect x="80" y="22" width="12" height="12" rx="2" fill="#fbbf24" opacity="0.2" stroke="#fbbf24" stroke-width="1"/>
      <text x="98" y="32" fill="#94a3b8">1 Cooperative</text>
      <rect x="200" y="22" width="12" height="12" rx="2" fill="#3b82f6" opacity="0.2" stroke="#60a5fa" stroke-width="1"/>
      <text x="218" y="32" fill="#94a3b8">2 Software</text>
      <rect x="0" y="42" width="12" height="12" rx="2" fill="#7c3aed" opacity="0.2" stroke="#a78bfa" stroke-width="1"/>
      <text x="18" y="52" fill="#94a3b8">3 Kernel</text>
      <rect x="100" y="42" width="12" height="12" rx="2" fill="#059669" opacity="0.25" stroke="#34d399" stroke-width="1"/>
      <text x="118" y="52" fill="#94a3b8">4 Structural</text>
    </g>

    <!-- Threat coverage mini -->
    <g transform="translate(0, 310)" font-size="10">
      <text x="0" y="12" fill="#64748b" font-weight="600" letter-spacing="1">THREAT COVERAGE</text>
      <g transform="translate(0, 24)">
        <circle cx="8" cy="8" r="7" fill="#059669"/>
        <text x="22" y="12" fill="#94a3b8">Addressed</text>
        <circle cx="108" cy="8" r="7" fill="none" stroke="#d97706" stroke-width="1.5"/>
        <path d="M 108,1 A 7,7 0 0,0 108,15 Z" fill="#d97706"/>
        <text x="122" y="12" fill="#94a3b8">Partial</text>
        <circle cx="198" cy="8" r="7" fill="none" stroke="#475569" stroke-width="1.5"/>
        <text x="212" y="12" fill="#94a3b8">Not addressed</text>
      </g>
    </g>
  </g>

  <!-- URL -->
  <text x="80" y="560" font-size="16" fill="#64748b" font-weight="500">ast.georgebuilds.dev</text>

  <!-- Bottom accent line -->
  <rect x="0" y="620" width="1200" height="10" fill="url(#accent)"/>
</svg>
