<svg xmlns="http://www.w3.org/2000/svg" viewBox="0 0 738 916" font-family="Consolas, Monaco, monospace">
<rect width="738" height="916" fill="#0d1117"/>
<text x="369.0" y="20" fill="#e6edf3" font-size="15" font-weight="bold" text-anchor="middle">AST Fingerprint Heatmap — Strength by Layer</text>
<text x="236.0" y="38" fill="#7d8590" font-size="10" text-anchor="middle">Compute</text>
<text x="236.0" y="52" fill="#e6edf3" font-size="12" font-weight="bold" text-anchor="middle">L1</text>
<text x="310.0" y="38" fill="#7d8590" font-size="10" text-anchor="middle">Resource</text>
<text x="310.0" y="52" fill="#e6edf3" font-size="12" font-weight="bold" text-anchor="middle">L2</text>
<text x="384.0" y="38" fill="#7d8590" font-size="10" text-anchor="middle">Filesystem</text>
<text x="384.0" y="52" fill="#e6edf3" font-size="12" font-weight="bold" text-anchor="middle">L3</text>
<text x="458.0" y="38" fill="#7d8590" font-size="10" text-anchor="middle">Network</text>
<text x="458.0" y="52" fill="#e6edf3" font-size="12" font-weight="bold" text-anchor="middle">L4</text>
<text x="532.0" y="38" fill="#7d8590" font-size="10" text-anchor="middle">Credentials</text>
<text x="532.0" y="52" fill="#e6edf3" font-size="12" font-weight="bold" text-anchor="middle">L5</text>
<text x="606.0" y="38" fill="#7d8590" font-size="10" text-anchor="middle">Governance</text>
<text x="606.0" y="52" fill="#e6edf3" font-size="12" font-weight="bold" text-anchor="middle">L6</text>
<text x="680.0" y="38" fill="#7d8590" font-size="10" text-anchor="middle">Observability</text>
<text x="680.0" y="52" fill="#e6edf3" font-size="12" font-weight="bold" text-anchor="middle">L7</text>
<text x="10" y="82" fill="#58a6ff" font-size="12" font-weight="bold">CLOUD PLATFORMS</text>
<text x="14" y="116.0" fill="#e6edf3" font-size="11">E2B</text>
<rect x="200" y="96" width="72" height="32" rx="4" fill="#059669"/>
<rect x="204" y="120" width="64.0" height="4" rx="2" fill="#e6edf3" opacity="0.3"/>
<text x="236.0" y="116.0" fill="#e6edf3" font-size="13" font-weight="bold" text-anchor="middle">4</text>
<rect x="274" y="96" width="72" height="32" rx="4" fill="#059669"/>
<rect x="278" y="120" width="64.0" height="4" rx="2" fill="#e6edf3" opacity="0.3"/>
<text x="310.0" y="116.0" fill="#e6edf3" font-size="13" font-weight="bold" text-anchor="middle">4</text>
<rect x="348" y="96" width="72" height="32" rx="4" fill="#059669"/>
<rect x="352" y="120" width="64.0" height="4" rx="2" fill="#e6edf3" opacity="0.3"/>
<text x="384.0" y="116.0" fill="#e6edf3" font-size="13" font-weight="bold" text-anchor="middle">4</text>
<rect x="422" y="96" width="72" height="32" rx="4" fill="#4a1a1a"/>
<text x="458.0" y="116.0" fill="#7d8590" font-size="13" font-weight="bold" text-anchor="middle">0</text>
<rect x="496" y="96" width="72" height="32" rx="4" fill="#2563eb"/>
<rect x="500" y="120" width="32.0" height="4" rx="2" fill="#e6edf3" opacity="0.3"/>
<text x="532.0" y="116.0" fill="#e6edf3" font-size="13" font-weight="bold" text-anchor="middle">2</text>
<rect x="570" y="96" width="72" height="32" rx="4" fill="#2d2d2d"/>
<text x="606.0" y="116.0" fill="#7d8590" font-size="13" font-weight="bold" text-anchor="middle">—</text>
<rect x="644" y="96" width="72" height="32" rx="4" fill="#2563eb"/>
<rect x="648" y="120" width="32.0" height="4" rx="2" fill="#e6edf3" opacity="0.3"/>
<text x="680.0" y="116.0" fill="#e6edf3" font-size="13" font-weight="bold" text-anchor="middle">2</text>
<text x="14" y="150.0" fill="#e6edf3" font-size="11">Daytona (Kata)</text>
<rect x="200" y="130" width="72" height="32" rx="4" fill="#059669"/>
<rect x="204" y="154" width="64.0" height="4" rx="2" fill="#e6edf3" opacity="0.3"/>
<text x="236.0" y="150.0" fill="#e6edf3" font-size="13" font-weight="bold" text-anchor="middle">4</text>
<rect x="274" y="130" width="72" height="32" rx="4" fill="#059669"/>
<rect x="278" y="154" width="64.0" height="4" rx="2" fill="#e6edf3" opacity="0.3"/>
<text x="310.0" y="150.0" fill="#e6edf3" font-size="13" font-weight="bold" text-anchor="middle">4</text>
<rect x="348" y="130" width="72" height="32" rx="4" fill="#059669"/>
<rect x="352" y="154" width="64.0" height="4" rx="2" fill="#e6edf3" opacity="0.3"/>
<text x="384.0" y="150.0" fill="#e6edf3" font-size="13" font-weight="bold" text-anchor="middle">4</text>
<rect x="422" y="130" width="72" height="32" rx="4" fill="#4a1a1a"/>
<text x="458.0" y="150.0" fill="#7d8590" font-size="13" font-weight="bold" text-anchor="middle">0</text>
<rect x="496" y="130" width="72" height="32" rx="4" fill="#2563eb"/>
<rect x="500" y="154" width="32.0" height="4" rx="2" fill="#e6edf3" opacity="0.3"/>
<text x="532.0" y="150.0" fill="#e6edf3" font-size="13" font-weight="bold" text-anchor="middle">2</text>
<rect x="570" y="130" width="72" height="32" rx="4" fill="#2d2d2d"/>
<text x="606.0" y="150.0" fill="#7d8590" font-size="13" font-weight="bold" text-anchor="middle">—</text>
<rect x="644" y="130" width="72" height="32" rx="4" fill="#b45309"/>
<rect x="648" y="154" width="16.0" height="4" rx="2" fill="#e6edf3" opacity="0.3"/>
<text x="680.0" y="150.0" fill="#e6edf3" font-size="13" font-weight="bold" text-anchor="middle">1</text>
<text x="14" y="184.0" fill="#e6edf3" font-size="11">Modal</text>
<rect x="200" y="164" width="72" height="32" rx="4" fill="#7c3aed"/>
<rect x="204" y="188" width="48.0" height="4" rx="2" fill="#e6edf3" opacity="0.3"/>
<text x="236.0" y="184.0" fill="#e6edf3" font-size="13" font-weight="bold" text-anchor="middle">3</text>
<rect x="274" y="164" width="72" height="32" rx="4" fill="#7c3aed"/>
<rect x="278" y="188" width="48.0" height="4" rx="2" fill="#e6edf3" opacity="0.3"/>
<text x="310.0" y="184.0" fill="#e6edf3" font-size="13" font-weight="bold" text-anchor="middle">3</text>
<rect x="348" y="164" width="72" height="32" rx="4" fill="#7c3aed"/>
<rect x="352" y="188" width="48.0" height="4" rx="2" fill="#e6edf3" opacity="0.3"/>
<text x="384.0" y="184.0" fill="#e6edf3" font-size="13" font-weight="bold" text-anchor="middle">3</text>
<rect x="422" y="164" width="72" height="32" rx="4" fill="#4a1a1a"/>
<text x="458.0" y="184.0" fill="#7d8590" font-size="13" font-weight="bold" text-anchor="middle">0</text>
<rect x="496" y="164" width="72" height="32" rx="4" fill="#2563eb"/>
<rect x="500" y="188" width="32.0" height="4" rx="2" fill="#e6edf3" opacity="0.3"/>
<text x="532.0" y="184.0" fill="#e6edf3" font-size="13" font-weight="bold" text-anchor="middle">2</text>
<rect x="570" y="164" width="72" height="32" rx="4" fill="#2d2d2d"/>
<text x="606.0" y="184.0" fill="#7d8590" font-size="13" font-weight="bold" text-anchor="middle">—</text>
<rect x="644" y="164" width="72" height="32" rx="4" fill="#2563eb"/>
<rect x="648" y="188" width="32.0" height="4" rx="2" fill="#e6edf3" opacity="0.3"/>
<text x="680.0" y="184.0" fill="#e6edf3" font-size="13" font-weight="bold" text-anchor="middle">2</text>
<text x="14" y="218.0" fill="#e6edf3" font-size="11">Fly.io Sprites</text>
<rect x="200" y="198" width="72" height="32" rx="4" fill="#059669"/>
<rect x="204" y="222" width="64.0" height="4" rx="2" fill="#e6edf3" opacity="0.3"/>
<text x="236.0" y="218.0" fill="#e6edf3" font-size="13" font-weight="bold" text-anchor="middle">4</text>
<rect x="274" y="198" width="72" height="32" rx="4" fill="#059669"/>
<rect x="278" y="222" width="64.0" height="4" rx="2" fill="#e6edf3" opacity="0.3"/>
<text x="310.0" y="218.0" fill="#e6edf3" font-size="13" font-weight="bold" text-anchor="middle">4</text>
<rect x="348" y="198" width="72" height="32" rx="4" fill="#059669"/>
<rect x="352" y="222" width="64.0" height="4" rx="2" fill="#e6edf3" opacity="0.3"/>
<text x="384.0" y="218.0" fill="#e6edf3" font-size="13" font-weight="bold" text-anchor="middle">4</text>
<rect x="422" y="198" width="72" height="32" rx="4" fill="#4a1a1a"/>
<text x="458.0" y="218.0" fill="#7d8590" font-size="13" font-weight="bold" text-anchor="middle">0</text>
<rect x="496" y="198" width="72" height="32" rx="4" fill="#2563eb"/>
<rect x="500" y="222" width="32.0" height="4" rx="2" fill="#e6edf3" opacity="0.3"/>
<text x="532.0" y="218.0" fill="#e6edf3" font-size="13" font-weight="bold" text-anchor="middle">2</text>
<rect x="570" y="198" width="72" height="32" rx="4" fill="#2d2d2d"/>
<text x="606.0" y="218.0" fill="#7d8590" font-size="13" font-weight="bold" text-anchor="middle">—</text>
<rect x="644" y="198" width="72" height="32" rx="4" fill="#b45309"/>
<rect x="648" y="222" width="16.0" height="4" rx="2" fill="#e6edf3" opacity="0.3"/>
<text x="680.0" y="218.0" fill="#e6edf3" font-size="13" font-weight="bold" text-anchor="middle">1</text>
<text x="14" y="252.0" fill="#e6edf3" font-size="11">Blaxel</text>
<rect x="200" y="232" width="72" height="32" rx="4" fill="#059669"/>
<rect x="204" y="256" width="64.0" height="4" rx="2" fill="#e6edf3" opacity="0.3"/>
<text x="236.0" y="252.0" fill="#e6edf3" font-size="13" font-weight="bold" text-anchor="middle">4</text>
<rect x="274" y="232" width="72" height="32" rx="4" fill="#059669"/>
<rect x="278" y="256" width="64.0" height="4" rx="2" fill="#e6edf3" opacity="0.3"/>
<text x="310.0" y="252.0" fill="#e6edf3" font-size="13" font-weight="bold" text-anchor="middle">4</text>
<rect x="348" y="232" width="72" height="32" rx="4" fill="#059669"/>
<rect x="352" y="256" width="64.0" height="4" rx="2" fill="#e6edf3" opacity="0.3"/>
<text x="384.0" y="252.0" fill="#e6edf3" font-size="13" font-weight="bold" text-anchor="middle">4</text>
<rect x="422" y="232" width="72" height="32" rx="4" fill="#4a1a1a"/>
<text x="458.0" y="252.0" fill="#7d8590" font-size="13" font-weight="bold" text-anchor="middle">0</text>
<rect x="496" y="232" width="72" height="32" rx="4" fill="#2563eb"/>
<rect x="500" y="256" width="32.0" height="4" rx="2" fill="#e6edf3" opacity="0.3"/>
<text x="532.0" y="252.0" fill="#e6edf3" font-size="13" font-weight="bold" text-anchor="middle">2</text>
<rect x="570" y="232" width="72" height="32" rx="4" fill="#2d2d2d"/>
<text x="606.0" y="252.0" fill="#7d8590" font-size="13" font-weight="bold" text-anchor="middle">—</text>
<rect x="644" y="232" width="72" height="32" rx="4" fill="#2563eb"/>
<rect x="648" y="256" width="32.0" height="4" rx="2" fill="#e6edf3" opacity="0.3"/>
<text x="680.0" y="252.0" fill="#e6edf3" font-size="13" font-weight="bold" text-anchor="middle">2</text>
<text x="14" y="286.0" fill="#e6edf3" font-size="11">Unikraft Cloud</text>
<rect x="200" y="266" width="72" height="32" rx="4" fill="#059669"/>
<rect x="204" y="290" width="64.0" height="4" rx="2" fill="#e6edf3" opacity="0.3"/>
<text x="236.0" y="286.0" fill="#e6edf3" font-size="13" font-weight="bold" text-anchor="middle">4</text>
<rect x="274" y="266" width="72" height="32" rx="4" fill="#7c3aed"/>
<rect x="278" y="290" width="48.0" height="4" rx="2" fill="#e6edf3" opacity="0.3"/>
<text x="310.0" y="286.0" fill="#e6edf3" font-size="13" font-weight="bold" text-anchor="middle">3</text>
<rect x="348" y="266" width="72" height="32" rx="4" fill="#059669"/>
<rect x="352" y="290" width="64.0" height="4" rx="2" fill="#e6edf3" opacity="0.3"/>
<text x="384.0" y="286.0" fill="#e6edf3" font-size="13" font-weight="bold" text-anchor="middle">4</text>
<rect x="422" y="266" width="72" height="32" rx="4" fill="#4a1a1a"/>
<text x="458.0" y="286.0" fill="#7d8590" font-size="13" font-weight="bold" text-anchor="middle">0</text>
<rect x="496" y="266" width="72" height="32" rx="4" fill="#2563eb"/>
<rect x="500" y="290" width="32.0" height="4" rx="2" fill="#e6edf3" opacity="0.3"/>
<text x="532.0" y="286.0" fill="#e6edf3" font-size="13" font-weight="bold" text-anchor="middle">2</text>
<rect x="570" y="266" width="72" height="32" rx="4" fill="#2d2d2d"/>
<text x="606.0" y="286.0" fill="#7d8590" font-size="13" font-weight="bold" text-anchor="middle">—</text>
<rect x="644" y="266" width="72" height="32" rx="4" fill="#2563eb"/>
<rect x="648" y="290" width="32.0" height="4" rx="2" fill="#e6edf3" opacity="0.3"/>
<text x="680.0" y="286.0" fill="#e6edf3" font-size="13" font-weight="bold" text-anchor="middle">2</text>
<text x="14" y="320.0" fill="#e6edf3" font-size="11">Docker Sandbox</text>
<rect x="200" y="300" width="72" height="32" rx="4" fill="#059669"/>
<rect x="204" y="324" width="64.0" height="4" rx="2" fill="#e6edf3" opacity="0.3"/>
<text x="236.0" y="320.0" fill="#e6edf3" font-size="13" font-weight="bold" text-anchor="middle">4</text>
<rect x="274" y="300" width="72" height="32" rx="4" fill="#7c3aed"/>
<rect x="278" y="324" width="48.0" height="4" rx="2" fill="#e6edf3" opacity="0.3"/>
<text x="310.0" y="320.0" fill="#e6edf3" font-size="13" font-weight="bold" text-anchor="middle">3</text>
<rect x="348" y="300" width="72" height="32" rx="4" fill="#7c3aed"/>
<rect x="352" y="324" width="48.0" height="4" rx="2" fill="#e6edf3" opacity="0.3"/>
<text x="384.0" y="320.0" fill="#e6edf3" font-size="13" font-weight="bold" text-anchor="middle">3</text>
<rect x="422" y="300" width="72" height="32" rx="4" fill="#4a1a1a"/>
<text x="458.0" y="320.0" fill="#7d8590" font-size="13" font-weight="bold" text-anchor="middle">0</text>
<rect x="496" y="300" width="72" height="32" rx="4" fill="#2563eb"/>
<rect x="500" y="324" width="32.0" height="4" rx="2" fill="#e6edf3" opacity="0.3"/>
<text x="532.0" y="320.0" fill="#e6edf3" font-size="13" font-weight="bold" text-anchor="middle">2</text>
<rect x="570" y="300" width="72" height="32" rx="4" fill="#2d2d2d"/>
<text x="606.0" y="320.0" fill="#7d8590" font-size="13" font-weight="bold" text-anchor="middle">—</text>
<rect x="644" y="300" width="72" height="32" rx="4" fill="#b45309"/>
<rect x="648" y="324" width="16.0" height="4" rx="2" fill="#e6edf3" opacity="0.3"/>
<text x="680.0" y="320.0" fill="#e6edf3" font-size="13" font-weight="bold" text-anchor="middle">1</text>
<text x="14" y="354.0" fill="#e6edf3" font-size="11">Google Agent Sandbox</text>
<rect x="200" y="334" width="72" height="32" rx="4" fill="#7c3aed"/>
<rect x="204" y="358" width="48.0" height="4" rx="2" fill="#e6edf3" opacity="0.3"/>
<text x="236.0" y="354.0" fill="#e6edf3" font-size="13" font-weight="bold" text-anchor="middle">3</text>
<rect x="274" y="334" width="72" height="32" rx="4" fill="#7c3aed"/>
<rect x="278" y="358" width="48.0" height="4" rx="2" fill="#e6edf3" opacity="0.3"/>
<text x="310.0" y="354.0" fill="#e6edf3" font-size="13" font-weight="bold" text-anchor="middle">3</text>
<rect x="348" y="334" width="72" height="32" rx="4" fill="#7c3aed"/>
<rect x="352" y="358" width="48.0" height="4" rx="2" fill="#e6edf3" opacity="0.3"/>
<text x="384.0" y="354.0" fill="#e6edf3" font-size="13" font-weight="bold" text-anchor="middle">3</text>
<rect x="422" y="334" width="72" height="32" rx="4" fill="#4a1a1a"/>
<text x="458.0" y="354.0" fill="#7d8590" font-size="13" font-weight="bold" text-anchor="middle">0</text>
<rect x="496" y="334" width="72" height="32" rx="4" fill="#2563eb"/>
<rect x="500" y="358" width="32.0" height="4" rx="2" fill="#e6edf3" opacity="0.3"/>
<text x="532.0" y="354.0" fill="#e6edf3" font-size="13" font-weight="bold" text-anchor="middle">2</text>
<rect x="570" y="334" width="72" height="32" rx="4" fill="#2d2d2d"/>
<text x="606.0" y="354.0" fill="#7d8590" font-size="13" font-weight="bold" text-anchor="middle">—</text>
<rect x="644" y="334" width="72" height="32" rx="4" fill="#b45309"/>
<rect x="648" y="358" width="16.0" height="4" rx="2" fill="#e6edf3" opacity="0.3"/>
<text x="680.0" y="354.0" fill="#e6edf3" font-size="13" font-weight="bold" text-anchor="middle">1</text>
<text x="10" y="390" fill="#58a6ff" font-size="12" font-weight="bold">POLICY &amp; CREDENTIAL TOOLS</text>
<text x="14" y="424.0" fill="#e6edf3" font-size="11">StrongDM Leash</text>
<rect x="200" y="404" width="72" height="32" rx="4" fill="#2563eb"/>
<rect x="204" y="428" width="32.0" height="4" rx="2" fill="#e6edf3" opacity="0.3"/>
<text x="236.0" y="424.0" fill="#e6edf3" font-size="13" font-weight="bold" text-anchor="middle">2</text>
<rect x="274" y="404" width="72" height="32" rx="4" fill="#2563eb"/>
<rect x="278" y="428" width="32.0" height="4" rx="2" fill="#e6edf3" opacity="0.3"/>
<text x="310.0" y="424.0" fill="#e6edf3" font-size="13" font-weight="bold" text-anchor="middle">2</text>
<rect x="348" y="404" width="72" height="32" rx="4" fill="#2563eb"/>
<rect x="352" y="428" width="32.0" height="4" rx="2" fill="#e6edf3" opacity="0.3"/>
<text x="384.0" y="424.0" fill="#e6edf3" font-size="13" font-weight="bold" text-anchor="middle">2</text>
<rect x="422" y="404" width="72" height="32" rx="4" fill="#7c3aed"/>
<rect x="426" y="428" width="48.0" height="4" rx="2" fill="#e6edf3" opacity="0.3"/>
<text x="458.0" y="424.0" fill="#e6edf3" font-size="13" font-weight="bold" text-anchor="middle">3</text>
<rect x="496" y="404" width="72" height="32" rx="4" fill="#2563eb"/>
<rect x="500" y="428" width="32.0" height="4" rx="2" fill="#e6edf3" opacity="0.3"/>
<text x="532.0" y="424.0" fill="#e6edf3" font-size="13" font-weight="bold" text-anchor="middle">2</text>
<rect x="570" y="404" width="72" height="32" rx="4" fill="#2563eb"/>
<rect x="574" y="428" width="32.0" height="4" rx="2" fill="#e6edf3" opacity="0.3"/>
<text x="606.0" y="424.0" fill="#e6edf3" font-size="13" font-weight="bold" text-anchor="middle">2</text>
<rect x="644" y="404" width="72" height="32" rx="4" fill="#7c3aed"/>
<rect x="648" y="428" width="48.0" height="4" rx="2" fill="#e6edf3" opacity="0.3"/>
<text x="680.0" y="424.0" fill="#e6edf3" font-size="13" font-weight="bold" text-anchor="middle">3</text>
<text x="14" y="458.0" fill="#e6edf3" font-size="11">Stakpak Warden</text>
<rect x="200" y="438" width="72" height="32" rx="4" fill="#2d2d2d"/>
<text x="236.0" y="458.0" fill="#7d8590" font-size="13" font-weight="bold" text-anchor="middle">—</text>
<rect x="274" y="438" width="72" height="32" rx="4" fill="#2d2d2d"/>
<text x="310.0" y="458.0" fill="#7d8590" font-size="13" font-weight="bold" text-anchor="middle">—</text>
<rect x="348" y="438" width="72" height="32" rx="4" fill="#b45309"/>
<rect x="352" y="462" width="16.0" height="4" rx="2" fill="#e6edf3" opacity="0.3"/>
<text x="384.0" y="458.0" fill="#e6edf3" font-size="13" font-weight="bold" text-anchor="middle">1</text>
<rect x="422" y="438" width="72" height="32" rx="4" fill="#2563eb"/>
<rect x="426" y="462" width="32.0" height="4" rx="2" fill="#e6edf3" opacity="0.3"/>
<text x="458.0" y="458.0" fill="#e6edf3" font-size="13" font-weight="bold" text-anchor="middle">2</text>
<rect x="496" y="438" width="72" height="32" rx="4" fill="#7c3aed"/>
<rect x="500" y="462" width="48.0" height="4" rx="2" fill="#e6edf3" opacity="0.3"/>
<text x="532.0" y="458.0" fill="#e6edf3" font-size="13" font-weight="bold" text-anchor="middle">3</text>
<rect x="570" y="438" width="72" height="32" rx="4" fill="#2563eb"/>
<rect x="574" y="462" width="32.0" height="4" rx="2" fill="#e6edf3" opacity="0.3"/>
<text x="606.0" y="458.0" fill="#e6edf3" font-size="13" font-weight="bold" text-anchor="middle">2</text>
<rect x="644" y="438" width="72" height="32" rx="4" fill="#7c3aed"/>
<rect x="648" y="462" width="48.0" height="4" rx="2" fill="#e6edf3" opacity="0.3"/>
<text x="680.0" y="458.0" fill="#e6edf3" font-size="13" font-weight="bold" text-anchor="middle">3</text>
<text x="10" y="494" fill="#58a6ff" font-size="12" font-weight="bold">OS-LEVEL WRAPPERS</text>
<text x="14" y="528.0" fill="#e6edf3" font-size="11">nono</text>
<rect x="200" y="508" width="72" height="32" rx="4" fill="#7c3aed"/>
<rect x="204" y="532" width="48.0" height="4" rx="2" fill="#e6edf3" opacity="0.3"/>
<text x="236.0" y="528.0" fill="#e6edf3" font-size="13" font-weight="bold" text-anchor="middle">3</text>
<rect x="274" y="508" width="72" height="32" rx="4" fill="#2d2d2d"/>
<text x="310.0" y="528.0" fill="#7d8590" font-size="13" font-weight="bold" text-anchor="middle">—</text>
<rect x="348" y="508" width="72" height="32" rx="4" fill="#7c3aed"/>
<rect x="352" y="532" width="48.0" height="4" rx="2" fill="#e6edf3" opacity="0.3"/>
<text x="384.0" y="528.0" fill="#e6edf3" font-size="13" font-weight="bold" text-anchor="middle">3</text>
<rect x="422" y="508" width="72" height="32" rx="4" fill="#7c3aed"/>
<rect x="426" y="532" width="48.0" height="4" rx="2" fill="#e6edf3" opacity="0.3"/>
<text x="458.0" y="528.0" fill="#e6edf3" font-size="13" font-weight="bold" text-anchor="middle">3</text>
<rect x="496" y="508" width="72" height="32" rx="4" fill="#7c3aed"/>
<rect x="500" y="532" width="48.0" height="4" rx="2" fill="#e6edf3" opacity="0.3"/>
<text x="532.0" y="528.0" fill="#e6edf3" font-size="13" font-weight="bold" text-anchor="middle">3</text>
<rect x="570" y="508" width="72" height="32" rx="4" fill="#2563eb"/>
<rect x="574" y="532" width="32.0" height="4" rx="2" fill="#e6edf3" opacity="0.3"/>
<text x="606.0" y="528.0" fill="#e6edf3" font-size="13" font-weight="bold" text-anchor="middle">2</text>
<rect x="644" y="508" width="72" height="32" rx="4" fill="#2563eb"/>
<rect x="648" y="532" width="32.0" height="4" rx="2" fill="#e6edf3" opacity="0.3"/>
<text x="680.0" y="528.0" fill="#e6edf3" font-size="13" font-weight="bold" text-anchor="middle">2</text>
<text x="14" y="562.0" fill="#e6edf3" font-size="11">packnplay</text>
<rect x="200" y="542" width="72" height="32" rx="4" fill="#2563eb"/>
<rect x="204" y="566" width="32.0" height="4" rx="2" fill="#e6edf3" opacity="0.3"/>
<text x="236.0" y="562.0" fill="#e6edf3" font-size="13" font-weight="bold" text-anchor="middle">2</text>
<rect x="274" y="542" width="72" height="32" rx="4" fill="#2563eb"/>
<rect x="278" y="566" width="32.0" height="4" rx="2" fill="#e6edf3" opacity="0.3"/>
<text x="310.0" y="562.0" fill="#e6edf3" font-size="13" font-weight="bold" text-anchor="middle">2</text>
<rect x="348" y="542" width="72" height="32" rx="4" fill="#2563eb"/>
<rect x="352" y="566" width="32.0" height="4" rx="2" fill="#e6edf3" opacity="0.3"/>
<text x="384.0" y="562.0" fill="#e6edf3" font-size="13" font-weight="bold" text-anchor="middle">2</text>
<rect x="422" y="542" width="72" height="32" rx="4" fill="#4a1a1a"/>
<text x="458.0" y="562.0" fill="#7d8590" font-size="13" font-weight="bold" text-anchor="middle">0</text>
<rect x="496" y="542" width="72" height="32" rx="4" fill="#2563eb"/>
<rect x="500" y="566" width="32.0" height="4" rx="2" fill="#e6edf3" opacity="0.3"/>
<text x="532.0" y="562.0" fill="#e6edf3" font-size="13" font-weight="bold" text-anchor="middle">2</text>
<rect x="570" y="542" width="72" height="32" rx="4" fill="#2d2d2d"/>
<text x="606.0" y="562.0" fill="#7d8590" font-size="13" font-weight="bold" text-anchor="middle">—</text>
<rect x="644" y="542" width="72" height="32" rx="4" fill="#b45309"/>
<rect x="648" y="566" width="16.0" height="4" rx="2" fill="#e6edf3" opacity="0.3"/>
<text x="680.0" y="562.0" fill="#e6edf3" font-size="13" font-weight="bold" text-anchor="middle">1</text>
<text x="10" y="598" fill="#58a6ff" font-size="12" font-weight="bold">BUILT-IN AGENT SANDBOXES</text>
<text x="14" y="632.0" fill="#e6edf3" font-size="11">Claude Code (local)</text>
<rect x="200" y="612" width="72" height="32" rx="4" fill="#7c3aed"/>
<rect x="204" y="636" width="48.0" height="4" rx="2" fill="#e6edf3" opacity="0.3"/>
<text x="236.0" y="632.0" fill="#e6edf3" font-size="13" font-weight="bold" text-anchor="middle">3</text>
<rect x="274" y="612" width="72" height="32" rx="4" fill="#2d2d2d"/>
<text x="310.0" y="632.0" fill="#7d8590" font-size="13" font-weight="bold" text-anchor="middle">—</text>
<rect x="348" y="612" width="72" height="32" rx="4" fill="#7c3aed"/>
<rect x="352" y="636" width="48.0" height="4" rx="2" fill="#e6edf3" opacity="0.3"/>
<text x="384.0" y="632.0" fill="#e6edf3" font-size="13" font-weight="bold" text-anchor="middle">3</text>
<rect x="422" y="612" width="72" height="32" rx="4" fill="#4a1a1a"/>
<text x="458.0" y="632.0" fill="#7d8590" font-size="13" font-weight="bold" text-anchor="middle">0</text>
<rect x="496" y="612" width="72" height="32" rx="4" fill="#7c3aed"/>
<rect x="500" y="636" width="48.0" height="4" rx="2" fill="#e6edf3" opacity="0.3"/>
<text x="532.0" y="632.0" fill="#e6edf3" font-size="13" font-weight="bold" text-anchor="middle">3</text>
<rect x="570" y="612" width="72" height="32" rx="4" fill="#b45309"/>
<rect x="574" y="636" width="16.0" height="4" rx="2" fill="#e6edf3" opacity="0.3"/>
<text x="606.0" y="632.0" fill="#e6edf3" font-size="13" font-weight="bold" text-anchor="middle">1</text>
<rect x="644" y="612" width="72" height="32" rx="4" fill="#b45309"/>
<rect x="648" y="636" width="16.0" height="4" rx="2" fill="#e6edf3" opacity="0.3"/>
<text x="680.0" y="632.0" fill="#e6edf3" font-size="13" font-weight="bold" text-anchor="middle">1</text>
<text x="14" y="666.0" fill="#e6edf3" font-size="11">Claude Code (web)</text>
<rect x="200" y="646" width="72" height="32" rx="4" fill="#059669"/>
<rect x="204" y="670" width="64.0" height="4" rx="2" fill="#e6edf3" opacity="0.3"/>
<text x="236.0" y="666.0" fill="#e6edf3" font-size="13" font-weight="bold" text-anchor="middle">4</text>
<rect x="274" y="646" width="72" height="32" rx="4" fill="#7c3aed"/>
<rect x="278" y="670" width="48.0" height="4" rx="2" fill="#e6edf3" opacity="0.3"/>
<text x="310.0" y="666.0" fill="#e6edf3" font-size="13" font-weight="bold" text-anchor="middle">3</text>
<rect x="348" y="646" width="72" height="32" rx="4" fill="#059669"/>
<rect x="352" y="670" width="64.0" height="4" rx="2" fill="#e6edf3" opacity="0.3"/>
<text x="384.0" y="666.0" fill="#e6edf3" font-size="13" font-weight="bold" text-anchor="middle">4</text>
<rect x="422" y="646" width="72" height="32" rx="4" fill="#059669"/>
<rect x="426" y="670" width="64.0" height="4" rx="2" fill="#e6edf3" opacity="0.3"/>
<text x="458.0" y="666.0" fill="#e6edf3" font-size="13" font-weight="bold" text-anchor="middle">4</text>
<rect x="496" y="646" width="72" height="32" rx="4" fill="#059669"/>
<rect x="500" y="670" width="64.0" height="4" rx="2" fill="#e6edf3" opacity="0.3"/>
<text x="532.0" y="666.0" fill="#e6edf3" font-size="13" font-weight="bold" text-anchor="middle">4</text>
<rect x="570" y="646" width="72" height="32" rx="4" fill="#b45309"/>
<rect x="574" y="670" width="16.0" height="4" rx="2" fill="#e6edf3" opacity="0.3"/>
<text x="606.0" y="666.0" fill="#e6edf3" font-size="13" font-weight="bold" text-anchor="middle">1</text>
<rect x="644" y="646" width="72" height="32" rx="4" fill="#2563eb"/>
<rect x="648" y="670" width="32.0" height="4" rx="2" fill="#e6edf3" opacity="0.3"/>
<text x="680.0" y="666.0" fill="#e6edf3" font-size="13" font-weight="bold" text-anchor="middle">2</text>
<text x="14" y="700.0" fill="#e6edf3" font-size="11">Codex (agent phase)</text>
<rect x="200" y="680" width="72" height="32" rx="4" fill="#7c3aed"/>
<rect x="204" y="704" width="48.0" height="4" rx="2" fill="#e6edf3" opacity="0.3"/>
<text x="236.0" y="700.0" fill="#e6edf3" font-size="13" font-weight="bold" text-anchor="middle">3</text>
<rect x="274" y="680" width="72" height="32" rx="4" fill="#7c3aed"/>
<rect x="278" y="704" width="48.0" height="4" rx="2" fill="#e6edf3" opacity="0.3"/>
<text x="310.0" y="700.0" fill="#e6edf3" font-size="13" font-weight="bold" text-anchor="middle">3</text>
<rect x="348" y="680" width="72" height="32" rx="4" fill="#059669"/>
<rect x="352" y="704" width="64.0" height="4" rx="2" fill="#e6edf3" opacity="0.3"/>
<text x="384.0" y="700.0" fill="#e6edf3" font-size="13" font-weight="bold" text-anchor="middle">4</text>
<rect x="422" y="680" width="72" height="32" rx="4" fill="#059669"/>
<rect x="426" y="704" width="64.0" height="4" rx="2" fill="#e6edf3" opacity="0.3"/>
<text x="458.0" y="700.0" fill="#e6edf3" font-size="13" font-weight="bold" text-anchor="middle">4</text>
<rect x="496" y="680" width="72" height="32" rx="4" fill="#059669"/>
<rect x="500" y="704" width="64.0" height="4" rx="2" fill="#e6edf3" opacity="0.3"/>
<text x="532.0" y="700.0" fill="#e6edf3" font-size="13" font-weight="bold" text-anchor="middle">4</text>
<rect x="570" y="680" width="72" height="32" rx="4" fill="#b45309"/>
<rect x="574" y="704" width="16.0" height="4" rx="2" fill="#e6edf3" opacity="0.3"/>
<text x="606.0" y="700.0" fill="#e6edf3" font-size="13" font-weight="bold" text-anchor="middle">1</text>
<rect x="644" y="680" width="72" height="32" rx="4" fill="#2563eb"/>
<rect x="648" y="704" width="32.0" height="4" rx="2" fill="#e6edf3" opacity="0.3"/>
<text x="680.0" y="700.0" fill="#e6edf3" font-size="13" font-weight="bold" text-anchor="middle">2</text>
<text x="14" y="734.0" fill="#e6edf3" font-size="11">Cursor (sandboxed)</text>
<rect x="200" y="714" width="72" height="32" rx="4" fill="#7c3aed"/>
<rect x="204" y="738" width="48.0" height="4" rx="2" fill="#e6edf3" opacity="0.3"/>
<text x="236.0" y="734.0" fill="#e6edf3" font-size="13" font-weight="bold" text-anchor="middle">3</text>
<rect x="274" y="714" width="72" height="32" rx="4" fill="#2d2d2d"/>
<text x="310.0" y="734.0" fill="#7d8590" font-size="13" font-weight="bold" text-anchor="middle">—</text>
<rect x="348" y="714" width="72" height="32" rx="4" fill="#2563eb"/>
<rect x="352" y="738" width="32.0" height="4" rx="2" fill="#e6edf3" opacity="0.3"/>
<text x="384.0" y="734.0" fill="#e6edf3" font-size="13" font-weight="bold" text-anchor="middle">2</text>
<rect x="422" y="714" width="72" height="32" rx="4" fill="#7c3aed"/>
<rect x="426" y="738" width="48.0" height="4" rx="2" fill="#e6edf3" opacity="0.3"/>
<text x="458.0" y="734.0" fill="#e6edf3" font-size="13" font-weight="bold" text-anchor="middle">3</text>
<rect x="496" y="714" width="72" height="32" rx="4" fill="#2563eb"/>
<rect x="500" y="738" width="32.0" height="4" rx="2" fill="#e6edf3" opacity="0.3"/>
<text x="532.0" y="734.0" fill="#e6edf3" font-size="13" font-weight="bold" text-anchor="middle">2</text>
<rect x="570" y="714" width="72" height="32" rx="4" fill="#b45309"/>
<rect x="574" y="738" width="16.0" height="4" rx="2" fill="#e6edf3" opacity="0.3"/>
<text x="606.0" y="734.0" fill="#e6edf3" font-size="13" font-weight="bold" text-anchor="middle">1</text>
<rect x="644" y="714" width="72" height="32" rx="4" fill="#b45309"/>
<rect x="648" y="738" width="16.0" height="4" rx="2" fill="#e6edf3" opacity="0.3"/>
<text x="680.0" y="734.0" fill="#e6edf3" font-size="13" font-weight="bold" text-anchor="middle">1</text>
<text x="14" y="768.0" fill="#e6edf3" font-size="11">Copilot agent</text>
<rect x="200" y="748" width="72" height="32" rx="4" fill="#2563eb"/>
<rect x="204" y="772" width="32.0" height="4" rx="2" fill="#e6edf3" opacity="0.3"/>
<text x="236.0" y="768.0" fill="#e6edf3" font-size="13" font-weight="bold" text-anchor="middle">2</text>
<rect x="274" y="748" width="72" height="32" rx="4" fill="#2563eb"/>
<rect x="278" y="772" width="32.0" height="4" rx="2" fill="#e6edf3" opacity="0.3"/>
<text x="310.0" y="768.0" fill="#e6edf3" font-size="13" font-weight="bold" text-anchor="middle">2</text>
<rect x="348" y="748" width="72" height="32" rx="4" fill="#2563eb"/>
<rect x="352" y="772" width="32.0" height="4" rx="2" fill="#e6edf3" opacity="0.3"/>
<text x="384.0" y="768.0" fill="#e6edf3" font-size="13" font-weight="bold" text-anchor="middle">2</text>
<rect x="422" y="748" width="72" height="32" rx="4" fill="#2563eb"/>
<rect x="426" y="772" width="32.0" height="4" rx="2" fill="#e6edf3" opacity="0.3"/>
<text x="458.0" y="768.0" fill="#e6edf3" font-size="13" font-weight="bold" text-anchor="middle">2</text>
<rect x="496" y="748" width="72" height="32" rx="4" fill="#2563eb"/>
<rect x="500" y="772" width="32.0" height="4" rx="2" fill="#e6edf3" opacity="0.3"/>
<text x="532.0" y="768.0" fill="#e6edf3" font-size="13" font-weight="bold" text-anchor="middle">2</text>
<rect x="570" y="748" width="72" height="32" rx="4" fill="#b45309"/>
<rect x="574" y="772" width="16.0" height="4" rx="2" fill="#e6edf3" opacity="0.3"/>
<text x="606.0" y="768.0" fill="#e6edf3" font-size="13" font-weight="bold" text-anchor="middle">1</text>
<rect x="644" y="748" width="72" height="32" rx="4" fill="#b45309"/>
<rect x="648" y="772" width="16.0" height="4" rx="2" fill="#e6edf3" opacity="0.3"/>
<text x="680.0" y="768.0" fill="#e6edf3" font-size="13" font-weight="bold" text-anchor="middle">1</text>
<text x="14" y="802.0" fill="#e6edf3" font-size="11">Devin</text>
<rect x="200" y="782" width="72" height="32" rx="4" fill="#059669"/>
<rect x="204" y="806" width="64.0" height="4" rx="2" fill="#e6edf3" opacity="0.3"/>
<text x="236.0" y="802.0" fill="#e6edf3" font-size="13" font-weight="bold" text-anchor="middle">4</text>
<rect x="274" y="782" width="72" height="32" rx="4" fill="#7c3aed"/>
<rect x="278" y="806" width="48.0" height="4" rx="2" fill="#e6edf3" opacity="0.3"/>
<text x="310.0" y="802.0" fill="#e6edf3" font-size="13" font-weight="bold" text-anchor="middle">3</text>
<rect x="348" y="782" width="72" height="32" rx="4" fill="#7c3aed"/>
<rect x="352" y="806" width="48.0" height="4" rx="2" fill="#e6edf3" opacity="0.3"/>
<text x="384.0" y="802.0" fill="#e6edf3" font-size="13" font-weight="bold" text-anchor="middle">3</text>
<rect x="422" y="782" width="72" height="32" rx="4" fill="#2563eb"/>
<rect x="426" y="806" width="32.0" height="4" rx="2" fill="#e6edf3" opacity="0.3"/>
<text x="458.0" y="802.0" fill="#e6edf3" font-size="13" font-weight="bold" text-anchor="middle">2</text>
<rect x="496" y="782" width="72" height="32" rx="4" fill="#2563eb"/>
<rect x="500" y="806" width="32.0" height="4" rx="2" fill="#e6edf3" opacity="0.3"/>
<text x="532.0" y="802.0" fill="#e6edf3" font-size="13" font-weight="bold" text-anchor="middle">2</text>
<rect x="570" y="782" width="72" height="32" rx="4" fill="#b45309"/>
<rect x="574" y="806" width="16.0" height="4" rx="2" fill="#e6edf3" opacity="0.3"/>
<text x="606.0" y="802.0" fill="#e6edf3" font-size="13" font-weight="bold" text-anchor="middle">1</text>
<rect x="644" y="782" width="72" height="32" rx="4" fill="#2563eb"/>
<rect x="648" y="806" width="32.0" height="4" rx="2" fill="#e6edf3" opacity="0.3"/>
<text x="680.0" y="802.0" fill="#e6edf3" font-size="13" font-weight="bold" text-anchor="middle">2</text>
<text x="10" y="832" fill="#7d8590" font-size="10">STRENGTH</text>
<rect x="80" y="822" width="14" height="14" rx="3" fill="#2d2d2d"/>
<text x="98" y="832" fill="#7d8590" font-size="10">— Not addressed</text>
<rect x="207.5" y="822" width="14" height="14" rx="3" fill="#4a1a1a"/>
<text x="225.5" y="832" fill="#7d8590" font-size="10">0 Unenforced</text>
<rect x="315.5" y="822" width="14" height="14" rx="3" fill="#b45309"/>
<text x="333.5" y="832" fill="#7d8590" font-size="10">1 Cooperative</text>
<rect x="430.0" y="822" width="14" height="14" rx="3" fill="#2563eb"/>
<text x="448.0" y="832" fill="#7d8590" font-size="10">2 Software</text>
<rect x="525.0" y="822" width="14" height="14" rx="3" fill="#7c3aed"/>
<text x="543.0" y="832" fill="#7d8590" font-size="10">3 Kernel</text>
<rect x="607.0" y="822" width="14" height="14" rx="3" fill="#059669"/>
<text x="625.0" y="832" fill="#7d8590" font-size="10">4 Structural</text>
</svg>