<svg xmlns="http://www.w3.org/2000/svg" viewBox="0 0 893 859" font-family="system-ui, -apple-system, 'Segoe UI', sans-serif">
<rect width="893" height="859" fill="white" rx="8"/>
<text x="446.5" y="22" fill="#111827" font-size="14" font-weight="700" text-anchor="middle" letter-spacing="-0.3">Threat Coverage Matrix</text>
<text x="234.0" y="36" fill="#6b7280" font-size="9" text-anchor="middle">Exfiltration</text>
<text x="234.0" y="50" fill="#6366f1" font-size="10" font-weight="700" text-anchor="middle">T1</text>
<text x="305.0" y="36" fill="#6b7280" font-size="9" text-anchor="middle">Supply Chain</text>
<text x="305.0" y="50" fill="#6366f1" font-size="10" font-weight="700" text-anchor="middle">T2</text>
<text x="376.0" y="36" fill="#6b7280" font-size="9" text-anchor="middle">Destructive</text>
<text x="376.0" y="50" fill="#6366f1" font-size="10" font-weight="700" text-anchor="middle">T3</text>
<text x="447.0" y="36" fill="#6b7280" font-size="9" text-anchor="middle">Lateral</text>
<text x="447.0" y="50" fill="#6366f1" font-size="10" font-weight="700" text-anchor="middle">T4</text>
<text x="518.0" y="36" fill="#6b7280" font-size="9" text-anchor="middle">Persistence</text>
<text x="518.0" y="50" fill="#6366f1" font-size="10" font-weight="700" text-anchor="middle">T5</text>
<text x="589.0" y="36" fill="#6b7280" font-size="9" text-anchor="middle">Priv Esc</text>
<text x="589.0" y="50" fill="#6366f1" font-size="10" font-weight="700" text-anchor="middle">T6</text>
<text x="660.0" y="36" fill="#6b7280" font-size="9" text-anchor="middle">DoS</text>
<text x="660.0" y="50" fill="#6366f1" font-size="10" font-weight="700" text-anchor="middle">T7</text>
<text x="737.0" y="43" fill="#6b7280" font-size="9" text-anchor="middle">Evidence</text>
<text x="827.0" y="36" fill="#6b7280" font-size="9" text-anchor="middle">Last</text>
<text x="827.0" y="50" fill="#6b7280" font-size="9" text-anchor="middle">Reviewed</text>
<text x="14" y="74.0" fill="#111827" font-size="10" font-weight="500">Blaxel</text>
<circle cx="234.0" cy="70.0" r="8" fill="#f3f4f6" stroke="#e5e7eb" stroke-width="1"/>
<path d="M 234.0,62.0 A 8,8 0 0,0 234.0,78.0 Z" fill="#d97706"/>
<circle cx="234.0" cy="70.0" r="8" fill="none" stroke="#d97706" stroke-width="1.5"/>
<circle cx="305.0" cy="70.0" r="8" fill="#f3f4f6" stroke="#e5e7eb" stroke-width="1"/>
<path d="M 305.0,62.0 A 8,8 0 0,0 305.0,78.0 Z" fill="#d97706"/>
<circle cx="305.0" cy="70.0" r="8" fill="none" stroke="#d97706" stroke-width="1.5"/>
<circle cx="365.0" cy="68.0" r="6" fill="#059669"/>
<text x="365.0" y="82.0" fill="#6b7280" font-size="7" text-anchor="middle">L</text>
<circle cx="387.0" cy="68.0" r="6" fill="#f3f4f6" stroke="#e5e7eb" stroke-width="1"/>
<text x="387.0" y="82.0" fill="#6b7280" font-size="7" text-anchor="middle">R</text>
<circle cx="447.0" cy="70.0" r="8" fill="#f3f4f6" stroke="#e5e7eb" stroke-width="1"/>
<path d="M 447.0,62.0 A 8,8 0 0,0 447.0,78.0 Z" fill="#d97706"/>
<circle cx="447.0" cy="70.0" r="8" fill="none" stroke="#d97706" stroke-width="1.5"/>
<circle cx="518.0" cy="70.0" r="8" fill="#f3f4f6" stroke="#e5e7eb" stroke-width="1"/>
<path d="M 518.0,62.0 A 8,8 0 0,0 518.0,78.0 Z" fill="#d97706"/>
<circle cx="518.0" cy="70.0" r="8" fill="none" stroke="#d97706" stroke-width="1.5"/>
<circle cx="589.0" cy="70.0" r="8" fill="#059669"/>
<circle cx="660.0" cy="70.0" r="8" fill="#059669"/>
<text x="737.0" y="71.0" fill="#d97706" font-size="9" font-weight="600" text-anchor="middle" dominant-baseline="middle">Docs</text>
<text x="827.0" y="71.0" fill="#6b7280" font-size="8" text-anchor="middle" dominant-baseline="middle">Pending Review</text>
<text x="14" y="105.0" fill="#111827" font-size="10" font-weight="500">Claude Code (local)</text>
<circle cx="234.0" cy="101.0" r="8" fill="#f3f4f6" stroke="#e5e7eb" stroke-width="1"/>
<path d="M 234.0,93.0 A 8,8 0 0,0 234.0,109.0 Z" fill="#d97706"/>
<circle cx="234.0" cy="101.0" r="8" fill="none" stroke="#d97706" stroke-width="1.5"/>
<circle cx="305.0" cy="101.0" r="8" fill="#059669"/>
<circle cx="365.0" cy="99.0" r="6" fill="#059669"/>
<text x="365.0" y="113.0" fill="#6b7280" font-size="7" text-anchor="middle">L</text>
<circle cx="387.0" cy="99.0" r="6" fill="#f3f4f6" stroke="#e5e7eb" stroke-width="1"/>
<path d="M 387.0,93.0 A 6,6 0 0,0 387.0,105.0 Z" fill="#d97706"/>
<circle cx="387.0" cy="99.0" r="6" fill="none" stroke="#d97706" stroke-width="1.5"/>
<text x="387.0" y="113.0" fill="#6b7280" font-size="7" text-anchor="middle">R</text>
<circle cx="447.0" cy="101.0" r="8" fill="#059669"/>
<circle cx="518.0" cy="101.0" r="8" fill="#f3f4f6" stroke="#e5e7eb" stroke-width="1"/>
<path d="M 518.0,93.0 A 8,8 0 0,0 518.0,109.0 Z" fill="#d97706"/>
<circle cx="518.0" cy="101.0" r="8" fill="none" stroke="#d97706" stroke-width="1.5"/>
<circle cx="589.0" cy="101.0" r="8" fill="#f3f4f6" stroke="#e5e7eb" stroke-width="1"/>
<path d="M 589.0,93.0 A 8,8 0 0,0 589.0,109.0 Z" fill="#d97706"/>
<circle cx="589.0" cy="101.0" r="8" fill="none" stroke="#d97706" stroke-width="1.5"/>
<circle cx="660.0" cy="101.0" r="8" fill="#f3f4f6" stroke="#e5e7eb" stroke-width="1"/>
<path d="M 660.0,93.0 A 8,8 0 0,0 660.0,109.0 Z" fill="#d97706"/>
<circle cx="660.0" cy="101.0" r="8" fill="none" stroke="#d97706" stroke-width="1.5"/>
<text x="737.0" y="102.0" fill="#d97706" font-size="9" font-weight="600" text-anchor="middle" dominant-baseline="middle">Docs</text>
<text x="827.0" y="102.0" fill="#6b7280" font-size="8" text-anchor="middle" dominant-baseline="middle">Pending Review</text>
<text x="14" y="136.0" fill="#111827" font-size="10" font-weight="500">Claude Code (web)</text>
<circle cx="234.0" cy="132.0" r="8" fill="#059669"/>
<circle cx="305.0" cy="132.0" r="8" fill="#059669"/>
<circle cx="365.0" cy="130.0" r="6" fill="#059669"/>
<text x="365.0" y="144.0" fill="#6b7280" font-size="7" text-anchor="middle">L</text>
<circle cx="387.0" cy="130.0" r="6" fill="#f3f4f6" stroke="#e5e7eb" stroke-width="1"/>
<path d="M 387.0,124.0 A 6,6 0 0,0 387.0,136.0 Z" fill="#d97706"/>
<circle cx="387.0" cy="130.0" r="6" fill="none" stroke="#d97706" stroke-width="1.5"/>
<text x="387.0" y="144.0" fill="#6b7280" font-size="7" text-anchor="middle">R</text>
<circle cx="447.0" cy="132.0" r="8" fill="#059669"/>
<circle cx="518.0" cy="132.0" r="8" fill="#f3f4f6" stroke="#e5e7eb" stroke-width="1"/>
<path d="M 518.0,124.0 A 8,8 0 0,0 518.0,140.0 Z" fill="#d97706"/>
<circle cx="518.0" cy="132.0" r="8" fill="none" stroke="#d97706" stroke-width="1.5"/>
<circle cx="589.0" cy="132.0" r="8" fill="#f3f4f6" stroke="#e5e7eb" stroke-width="1"/>
<path d="M 589.0,124.0 A 8,8 0 0,0 589.0,140.0 Z" fill="#d97706"/>
<circle cx="589.0" cy="132.0" r="8" fill="none" stroke="#d97706" stroke-width="1.5"/>
<circle cx="660.0" cy="132.0" r="8" fill="#f3f4f6" stroke="#e5e7eb" stroke-width="1"/>
<path d="M 660.0,124.0 A 8,8 0 0,0 660.0,140.0 Z" fill="#d97706"/>
<circle cx="660.0" cy="132.0" r="8" fill="none" stroke="#d97706" stroke-width="1.5"/>
<text x="737.0" y="133.0" fill="#d97706" font-size="9" font-weight="600" text-anchor="middle" dominant-baseline="middle">Docs</text>
<text x="827.0" y="133.0" fill="#6b7280" font-size="8" text-anchor="middle" dominant-baseline="middle">Pending Review</text>
<text x="14" y="167.0" fill="#111827" font-size="10" font-weight="500">Cloudflare Workers</text>
<circle cx="234.0" cy="163.0" r="8" fill="#059669"/>
<circle cx="305.0" cy="163.0" r="8" fill="#059669"/>
<circle cx="365.0" cy="161.0" r="6" fill="#059669"/>
<text x="365.0" y="175.0" fill="#6b7280" font-size="7" text-anchor="middle">L</text>
<circle cx="387.0" cy="161.0" r="6" fill="#059669"/>
<text x="387.0" y="175.0" fill="#6b7280" font-size="7" text-anchor="middle">R</text>
<circle cx="447.0" cy="163.0" r="8" fill="#059669"/>
<circle cx="518.0" cy="163.0" r="8" fill="#059669"/>
<circle cx="589.0" cy="163.0" r="8" fill="#f3f4f6" stroke="#e5e7eb" stroke-width="1"/>
<path d="M 589.0,155.0 A 8,8 0 0,0 589.0,171.0 Z" fill="#d97706"/>
<circle cx="589.0" cy="163.0" r="8" fill="none" stroke="#d97706" stroke-width="1.5"/>
<circle cx="660.0" cy="163.0" r="8" fill="#059669"/>
<text x="737.0" y="164.0" fill="#d97706" font-size="9" font-weight="600" text-anchor="middle" dominant-baseline="middle">Docs</text>
<text x="827.0" y="164.0" fill="#6b7280" font-size="8" text-anchor="middle" dominant-baseline="middle">Pending Review</text>
<text x="14" y="198.0" fill="#111827" font-size="10" font-weight="500">Codex CLI (agent phase)</text>
<circle cx="234.0" cy="194.0" r="8" fill="#059669"/>
<circle cx="305.0" cy="194.0" r="8" fill="#059669"/>
<circle cx="365.0" cy="192.0" r="6" fill="#059669"/>
<text x="365.0" y="206.0" fill="#6b7280" font-size="7" text-anchor="middle">L</text>
<circle cx="387.0" cy="192.0" r="6" fill="#f3f4f6" stroke="#e5e7eb" stroke-width="1"/>
<path d="M 387.0,186.0 A 6,6 0 0,0 387.0,198.0 Z" fill="#d97706"/>
<circle cx="387.0" cy="192.0" r="6" fill="none" stroke="#d97706" stroke-width="1.5"/>
<text x="387.0" y="206.0" fill="#6b7280" font-size="7" text-anchor="middle">R</text>
<circle cx="447.0" cy="194.0" r="8" fill="#059669"/>
<circle cx="518.0" cy="194.0" r="8" fill="#f3f4f6" stroke="#e5e7eb" stroke-width="1"/>
<path d="M 518.0,186.0 A 8,8 0 0,0 518.0,202.0 Z" fill="#d97706"/>
<circle cx="518.0" cy="194.0" r="8" fill="none" stroke="#d97706" stroke-width="1.5"/>
<circle cx="589.0" cy="194.0" r="8" fill="#f3f4f6" stroke="#e5e7eb" stroke-width="1"/>
<path d="M 589.0,186.0 A 8,8 0 0,0 589.0,202.0 Z" fill="#d97706"/>
<circle cx="589.0" cy="194.0" r="8" fill="none" stroke="#d97706" stroke-width="1.5"/>
<circle cx="660.0" cy="194.0" r="8" fill="#f3f4f6" stroke="#e5e7eb" stroke-width="1"/>
<path d="M 660.0,186.0 A 8,8 0 0,0 660.0,202.0 Z" fill="#d97706"/>
<circle cx="660.0" cy="194.0" r="8" fill="none" stroke="#d97706" stroke-width="1.5"/>
<text x="737.0" y="195.0" fill="#d97706" font-size="9" font-weight="600" text-anchor="middle" dominant-baseline="middle">Docs</text>
<text x="827.0" y="195.0" fill="#6b7280" font-size="8" text-anchor="middle" dominant-baseline="middle">Pending Review</text>
<text x="14" y="229.0" fill="#111827" font-size="10" font-weight="500">Copilot coding agent</text>
<circle cx="234.0" cy="225.0" r="8" fill="#059669"/>
<circle cx="305.0" cy="225.0" r="8" fill="#059669"/>
<circle cx="365.0" cy="223.0" r="6" fill="#059669"/>
<text x="365.0" y="237.0" fill="#6b7280" font-size="7" text-anchor="middle">L</text>
<circle cx="387.0" cy="223.0" r="6" fill="#059669"/>
<text x="387.0" y="237.0" fill="#6b7280" font-size="7" text-anchor="middle">R</text>
<circle cx="447.0" cy="225.0" r="8" fill="#059669"/>
<circle cx="518.0" cy="225.0" r="8" fill="#059669"/>
<circle cx="589.0" cy="225.0" r="8" fill="#059669"/>
<circle cx="660.0" cy="225.0" r="8" fill="#059669"/>
<text x="737.0" y="226.0" fill="#d97706" font-size="9" font-weight="600" text-anchor="middle" dominant-baseline="middle">Docs</text>
<text x="827.0" y="226.0" fill="#6b7280" font-size="8" text-anchor="middle" dominant-baseline="middle">Pending Review</text>
<text x="14" y="260.0" fill="#111827" font-size="10" font-weight="500">Cursor (sandboxed)</text>
<circle cx="234.0" cy="256.0" r="8" fill="#f3f4f6" stroke="#e5e7eb" stroke-width="1"/>
<path d="M 234.0,248.0 A 8,8 0 0,0 234.0,264.0 Z" fill="#d97706"/>
<circle cx="234.0" cy="256.0" r="8" fill="none" stroke="#d97706" stroke-width="1.5"/>
<circle cx="305.0" cy="256.0" r="8" fill="#f3f4f6" stroke="#e5e7eb" stroke-width="1"/>
<path d="M 305.0,248.0 A 8,8 0 0,0 305.0,264.0 Z" fill="#d97706"/>
<circle cx="305.0" cy="256.0" r="8" fill="none" stroke="#d97706" stroke-width="1.5"/>
<circle cx="365.0" cy="254.0" r="6" fill="#059669"/>
<text x="365.0" y="268.0" fill="#6b7280" font-size="7" text-anchor="middle">L</text>
<circle cx="387.0" cy="254.0" r="6" fill="#f3f4f6" stroke="#e5e7eb" stroke-width="1"/>
<text x="387.0" y="268.0" fill="#6b7280" font-size="7" text-anchor="middle">R</text>
<circle cx="447.0" cy="256.0" r="8" fill="#f3f4f6" stroke="#e5e7eb" stroke-width="1"/>
<path d="M 447.0,248.0 A 8,8 0 0,0 447.0,264.0 Z" fill="#d97706"/>
<circle cx="447.0" cy="256.0" r="8" fill="none" stroke="#d97706" stroke-width="1.5"/>
<circle cx="518.0" cy="256.0" r="8" fill="#f3f4f6" stroke="#e5e7eb" stroke-width="1"/>
<path d="M 518.0,248.0 A 8,8 0 0,0 518.0,264.0 Z" fill="#d97706"/>
<circle cx="518.0" cy="256.0" r="8" fill="none" stroke="#d97706" stroke-width="1.5"/>
<circle cx="589.0" cy="256.0" r="8" fill="#f3f4f6" stroke="#e5e7eb" stroke-width="1"/>
<path d="M 589.0,248.0 A 8,8 0 0,0 589.0,264.0 Z" fill="#d97706"/>
<circle cx="589.0" cy="256.0" r="8" fill="none" stroke="#d97706" stroke-width="1.5"/>
<circle cx="660.0" cy="256.0" r="8" fill="#f3f4f6" stroke="#e5e7eb" stroke-width="1"/>
<path d="M 660.0,248.0 A 8,8 0 0,0 660.0,264.0 Z" fill="#d97706"/>
<circle cx="660.0" cy="256.0" r="8" fill="none" stroke="#d97706" stroke-width="1.5"/>
<text x="737.0" y="257.0" fill="#d97706" font-size="9" font-weight="600" text-anchor="middle" dominant-baseline="middle">Docs</text>
<text x="827.0" y="257.0" fill="#6b7280" font-size="8" text-anchor="middle" dominant-baseline="middle">Pending Review</text>
<text x="14" y="291.0" fill="#111827" font-size="10" font-weight="500">Daytona</text>
<circle cx="234.0" cy="287.0" r="8" fill="#f3f4f6" stroke="#e5e7eb" stroke-width="1"/>
<path d="M 234.0,279.0 A 8,8 0 0,0 234.0,295.0 Z" fill="#d97706"/>
<circle cx="234.0" cy="287.0" r="8" fill="none" stroke="#d97706" stroke-width="1.5"/>
<circle cx="305.0" cy="287.0" r="8" fill="#059669"/>
<circle cx="365.0" cy="285.0" r="6" fill="#059669"/>
<text x="365.0" y="299.0" fill="#6b7280" font-size="7" text-anchor="middle">L</text>
<circle cx="387.0" cy="285.0" r="6" fill="#f3f4f6" stroke="#e5e7eb" stroke-width="1"/>
<path d="M 387.0,279.0 A 6,6 0 0,0 387.0,291.0 Z" fill="#d97706"/>
<circle cx="387.0" cy="285.0" r="6" fill="none" stroke="#d97706" stroke-width="1.5"/>
<text x="387.0" y="299.0" fill="#6b7280" font-size="7" text-anchor="middle">R</text>
<circle cx="447.0" cy="287.0" r="8" fill="#059669"/>
<circle cx="518.0" cy="287.0" r="8" fill="#f3f4f6" stroke="#e5e7eb" stroke-width="1"/>
<path d="M 518.0,279.0 A 8,8 0 0,0 518.0,295.0 Z" fill="#d97706"/>
<circle cx="518.0" cy="287.0" r="8" fill="none" stroke="#d97706" stroke-width="1.5"/>
<circle cx="589.0" cy="287.0" r="8" fill="#f3f4f6" stroke="#e5e7eb" stroke-width="1"/>
<path d="M 589.0,279.0 A 8,8 0 0,0 589.0,295.0 Z" fill="#d97706"/>
<circle cx="589.0" cy="287.0" r="8" fill="none" stroke="#d97706" stroke-width="1.5"/>
<circle cx="660.0" cy="287.0" r="8" fill="#059669"/>
<text x="737.0" y="288.0" fill="#d97706" font-size="9" font-weight="600" text-anchor="middle" dominant-baseline="middle">Docs</text>
<text x="827.0" y="288.0" fill="#6b7280" font-size="8" text-anchor="middle" dominant-baseline="middle">Pending Review</text>
<text x="14" y="322.0" fill="#111827" font-size="10" font-weight="500">Deno Deploy</text>
<circle cx="234.0" cy="318.0" r="8" fill="#059669"/>
<circle cx="305.0" cy="318.0" r="8" fill="#059669"/>
<circle cx="365.0" cy="316.0" r="6" fill="#059669"/>
<text x="365.0" y="330.0" fill="#6b7280" font-size="7" text-anchor="middle">L</text>
<circle cx="387.0" cy="316.0" r="6" fill="#059669"/>
<text x="387.0" y="330.0" fill="#6b7280" font-size="7" text-anchor="middle">R</text>
<circle cx="447.0" cy="318.0" r="8" fill="#059669"/>
<circle cx="518.0" cy="318.0" r="8" fill="#059669"/>
<circle cx="589.0" cy="318.0" r="8" fill="#059669"/>
<circle cx="660.0" cy="318.0" r="8" fill="#059669"/>
<text x="737.0" y="319.0" fill="#d97706" font-size="9" font-weight="600" text-anchor="middle" dominant-baseline="middle">Docs</text>
<text x="827.0" y="319.0" fill="#6b7280" font-size="8" text-anchor="middle" dominant-baseline="middle">Pending Review</text>
<text x="14" y="353.0" fill="#111827" font-size="10" font-weight="500">Deno Sandbox</text>
<circle cx="234.0" cy="349.0" r="8" fill="#059669"/>
<circle cx="305.0" cy="349.0" r="8" fill="#059669"/>
<circle cx="365.0" cy="347.0" r="6" fill="#059669"/>
<text x="365.0" y="361.0" fill="#6b7280" font-size="7" text-anchor="middle">L</text>
<circle cx="387.0" cy="347.0" r="6" fill="#f3f4f6" stroke="#e5e7eb" stroke-width="1"/>
<path d="M 387.0,341.0 A 6,6 0 0,0 387.0,353.0 Z" fill="#d97706"/>
<circle cx="387.0" cy="347.0" r="6" fill="none" stroke="#d97706" stroke-width="1.5"/>
<text x="387.0" y="361.0" fill="#6b7280" font-size="7" text-anchor="middle">R</text>
<circle cx="447.0" cy="349.0" r="8" fill="#059669"/>
<circle cx="518.0" cy="349.0" r="8" fill="#f3f4f6" stroke="#e5e7eb" stroke-width="1"/>
<path d="M 518.0,341.0 A 8,8 0 0,0 518.0,357.0 Z" fill="#d97706"/>
<circle cx="518.0" cy="349.0" r="8" fill="none" stroke="#d97706" stroke-width="1.5"/>
<circle cx="589.0" cy="349.0" r="8" fill="#059669"/>
<circle cx="660.0" cy="349.0" r="8" fill="#059669"/>
<text x="737.0" y="350.0" fill="#d97706" font-size="9" font-weight="600" text-anchor="middle" dominant-baseline="middle">Docs</text>
<text x="827.0" y="350.0" fill="#6b7280" font-size="8" text-anchor="middle" dominant-baseline="middle">Pending Review</text>
<text x="14" y="384.0" fill="#111827" font-size="10" font-weight="500">Devin</text>
<circle cx="234.0" cy="380.0" r="8" fill="#f3f4f6" stroke="#e5e7eb" stroke-width="1"/>
<path d="M 234.0,372.0 A 8,8 0 0,0 234.0,388.0 Z" fill="#d97706"/>
<circle cx="234.0" cy="380.0" r="8" fill="none" stroke="#d97706" stroke-width="1.5"/>
<circle cx="305.0" cy="380.0" r="8" fill="#f3f4f6" stroke="#e5e7eb" stroke-width="1"/>
<path d="M 305.0,372.0 A 8,8 0 0,0 305.0,388.0 Z" fill="#d97706"/>
<circle cx="305.0" cy="380.0" r="8" fill="none" stroke="#d97706" stroke-width="1.5"/>
<circle cx="365.0" cy="378.0" r="6" fill="#059669"/>
<text x="365.0" y="392.0" fill="#6b7280" font-size="7" text-anchor="middle">L</text>
<circle cx="387.0" cy="378.0" r="6" fill="#f3f4f6" stroke="#e5e7eb" stroke-width="1"/>
<text x="387.0" y="392.0" fill="#6b7280" font-size="7" text-anchor="middle">R</text>
<circle cx="447.0" cy="380.0" r="8" fill="#f3f4f6" stroke="#e5e7eb" stroke-width="1"/>
<path d="M 447.0,372.0 A 8,8 0 0,0 447.0,388.0 Z" fill="#d97706"/>
<circle cx="447.0" cy="380.0" r="8" fill="none" stroke="#d97706" stroke-width="1.5"/>
<circle cx="518.0" cy="380.0" r="8" fill="#f3f4f6" stroke="#e5e7eb" stroke-width="1"/>
<path d="M 518.0,372.0 A 8,8 0 0,0 518.0,388.0 Z" fill="#d97706"/>
<circle cx="518.0" cy="380.0" r="8" fill="none" stroke="#d97706" stroke-width="1.5"/>
<circle cx="589.0" cy="380.0" r="8" fill="#059669"/>
<circle cx="660.0" cy="380.0" r="8" fill="#059669"/>
<text x="737.0" y="381.0" fill="#d97706" font-size="9" font-weight="600" text-anchor="middle" dominant-baseline="middle">Docs</text>
<text x="827.0" y="381.0" fill="#6b7280" font-size="8" text-anchor="middle" dominant-baseline="middle">Pending Review</text>
<text x="14" y="415.0" fill="#111827" font-size="10" font-weight="500">Docker Sandbox</text>
<circle cx="234.0" cy="411.0" r="8" fill="#059669"/>
<circle cx="305.0" cy="411.0" r="8" fill="#f3f4f6" stroke="#e5e7eb" stroke-width="1"/>
<path d="M 305.0,403.0 A 8,8 0 0,0 305.0,419.0 Z" fill="#d97706"/>
<circle cx="305.0" cy="411.0" r="8" fill="none" stroke="#d97706" stroke-width="1.5"/>
<circle cx="365.0" cy="409.0" r="6" fill="#059669"/>
<text x="365.0" y="423.0" fill="#6b7280" font-size="7" text-anchor="middle">L</text>
<circle cx="387.0" cy="409.0" r="6" fill="#f3f4f6" stroke="#e5e7eb" stroke-width="1"/>
<path d="M 387.0,403.0 A 6,6 0 0,0 387.0,415.0 Z" fill="#d97706"/>
<circle cx="387.0" cy="409.0" r="6" fill="none" stroke="#d97706" stroke-width="1.5"/>
<text x="387.0" y="423.0" fill="#6b7280" font-size="7" text-anchor="middle">R</text>
<circle cx="447.0" cy="411.0" r="8" fill="#059669"/>
<circle cx="518.0" cy="411.0" r="8" fill="#f3f4f6" stroke="#e5e7eb" stroke-width="1"/>
<path d="M 518.0,403.0 A 8,8 0 0,0 518.0,419.0 Z" fill="#d97706"/>
<circle cx="518.0" cy="411.0" r="8" fill="none" stroke="#d97706" stroke-width="1.5"/>
<circle cx="589.0" cy="411.0" r="8" fill="#059669"/>
<circle cx="660.0" cy="411.0" r="8" fill="#059669"/>
<text x="737.0" y="412.0" fill="#d97706" font-size="9" font-weight="600" text-anchor="middle" dominant-baseline="middle">Docs</text>
<text x="827.0" y="412.0" fill="#6b7280" font-size="8" text-anchor="middle" dominant-baseline="middle">Pending Review</text>
<text x="14" y="446.0" fill="#111827" font-size="10" font-weight="500">E2B</text>
<circle cx="234.0" cy="442.0" r="8" fill="#f3f4f6" stroke="#e5e7eb" stroke-width="1"/>
<path d="M 234.0,434.0 A 8,8 0 0,0 234.0,450.0 Z" fill="#d97706"/>
<circle cx="234.0" cy="442.0" r="8" fill="none" stroke="#d97706" stroke-width="1.5"/>
<circle cx="305.0" cy="442.0" r="8" fill="#f3f4f6" stroke="#e5e7eb" stroke-width="1"/>
<path d="M 305.0,434.0 A 8,8 0 0,0 305.0,450.0 Z" fill="#d97706"/>
<circle cx="305.0" cy="442.0" r="8" fill="none" stroke="#d97706" stroke-width="1.5"/>
<circle cx="365.0" cy="440.0" r="6" fill="#059669"/>
<text x="365.0" y="454.0" fill="#6b7280" font-size="7" text-anchor="middle">L</text>
<circle cx="387.0" cy="440.0" r="6" fill="#f3f4f6" stroke="#e5e7eb" stroke-width="1"/>
<path d="M 387.0,434.0 A 6,6 0 0,0 387.0,446.0 Z" fill="#d97706"/>
<circle cx="387.0" cy="440.0" r="6" fill="none" stroke="#d97706" stroke-width="1.5"/>
<text x="387.0" y="454.0" fill="#6b7280" font-size="7" text-anchor="middle">R</text>
<circle cx="447.0" cy="442.0" r="8" fill="#059669"/>
<circle cx="518.0" cy="442.0" r="8" fill="#f3f4f6" stroke="#e5e7eb" stroke-width="1"/>
<path d="M 518.0,434.0 A 8,8 0 0,0 518.0,450.0 Z" fill="#d97706"/>
<circle cx="518.0" cy="442.0" r="8" fill="none" stroke="#d97706" stroke-width="1.5"/>
<circle cx="589.0" cy="442.0" r="8" fill="#059669"/>
<circle cx="660.0" cy="442.0" r="8" fill="#059669"/>
<text x="737.0" y="443.0" fill="#d97706" font-size="9" font-weight="600" text-anchor="middle" dominant-baseline="middle">Docs</text>
<text x="827.0" y="443.0" fill="#6b7280" font-size="8" text-anchor="middle" dominant-baseline="middle">Pending Review</text>
<text x="14" y="477.0" fill="#111827" font-size="10" font-weight="500">Fly.io Sprites</text>
<circle cx="234.0" cy="473.0" r="8" fill="#f3f4f6" stroke="#e5e7eb" stroke-width="1"/>
<path d="M 234.0,465.0 A 8,8 0 0,0 234.0,481.0 Z" fill="#d97706"/>
<circle cx="234.0" cy="473.0" r="8" fill="none" stroke="#d97706" stroke-width="1.5"/>
<circle cx="305.0" cy="473.0" r="8" fill="#f3f4f6" stroke="#e5e7eb" stroke-width="1"/>
<path d="M 305.0,465.0 A 8,8 0 0,0 305.0,481.0 Z" fill="#d97706"/>
<circle cx="305.0" cy="473.0" r="8" fill="none" stroke="#d97706" stroke-width="1.5"/>
<circle cx="365.0" cy="471.0" r="6" fill="#059669"/>
<text x="365.0" y="485.0" fill="#6b7280" font-size="7" text-anchor="middle">L</text>
<circle cx="387.0" cy="471.0" r="6" fill="#f3f4f6" stroke="#e5e7eb" stroke-width="1"/>
<path d="M 387.0,465.0 A 6,6 0 0,0 387.0,477.0 Z" fill="#d97706"/>
<circle cx="387.0" cy="471.0" r="6" fill="none" stroke="#d97706" stroke-width="1.5"/>
<text x="387.0" y="485.0" fill="#6b7280" font-size="7" text-anchor="middle">R</text>
<circle cx="447.0" cy="473.0" r="8" fill="#059669"/>
<circle cx="518.0" cy="473.0" r="8" fill="#f3f4f6" stroke="#e5e7eb" stroke-width="1"/>
<path d="M 518.0,465.0 A 8,8 0 0,0 518.0,481.0 Z" fill="#d97706"/>
<circle cx="518.0" cy="473.0" r="8" fill="none" stroke="#d97706" stroke-width="1.5"/>
<circle cx="589.0" cy="473.0" r="8" fill="#059669"/>
<circle cx="660.0" cy="473.0" r="8" fill="#059669"/>
<text x="737.0" y="474.0" fill="#d97706" font-size="9" font-weight="600" text-anchor="middle" dominant-baseline="middle">Docs</text>
<text x="827.0" y="474.0" fill="#6b7280" font-size="8" text-anchor="middle" dominant-baseline="middle">Pending Review</text>
<text x="14" y="508.0" fill="#111827" font-size="10" font-weight="500">Google Agent Sandbox</text>
<circle cx="234.0" cy="504.0" r="8" fill="#059669"/>
<circle cx="305.0" cy="504.0" r="8" fill="#059669"/>
<circle cx="365.0" cy="502.0" r="6" fill="#059669"/>
<text x="365.0" y="516.0" fill="#6b7280" font-size="7" text-anchor="middle">L</text>
<circle cx="387.0" cy="502.0" r="6" fill="#059669"/>
<text x="387.0" y="516.0" fill="#6b7280" font-size="7" text-anchor="middle">R</text>
<circle cx="447.0" cy="504.0" r="8" fill="#059669"/>
<circle cx="518.0" cy="504.0" r="8" fill="#059669"/>
<circle cx="589.0" cy="504.0" r="8" fill="#059669"/>
<circle cx="660.0" cy="504.0" r="8" fill="#059669"/>
<text x="737.0" y="505.0" fill="#d97706" font-size="9" font-weight="600" text-anchor="middle" dominant-baseline="middle">Docs</text>
<text x="827.0" y="505.0" fill="#6b7280" font-size="8" text-anchor="middle" dominant-baseline="middle">Pending Review</text>
<text x="14" y="539.0" fill="#111827" font-size="10" font-weight="500">Modal</text>
<circle cx="234.0" cy="535.0" r="8" fill="#f3f4f6" stroke="#e5e7eb" stroke-width="1"/>
<path d="M 234.0,527.0 A 8,8 0 0,0 234.0,543.0 Z" fill="#d97706"/>
<circle cx="234.0" cy="535.0" r="8" fill="none" stroke="#d97706" stroke-width="1.5"/>
<circle cx="305.0" cy="535.0" r="8" fill="#059669"/>
<circle cx="365.0" cy="533.0" r="6" fill="#059669"/>
<text x="365.0" y="547.0" fill="#6b7280" font-size="7" text-anchor="middle">L</text>
<circle cx="387.0" cy="533.0" r="6" fill="#f3f4f6" stroke="#e5e7eb" stroke-width="1"/>
<path d="M 387.0,527.0 A 6,6 0 0,0 387.0,539.0 Z" fill="#d97706"/>
<circle cx="387.0" cy="533.0" r="6" fill="none" stroke="#d97706" stroke-width="1.5"/>
<text x="387.0" y="547.0" fill="#6b7280" font-size="7" text-anchor="middle">R</text>
<circle cx="447.0" cy="535.0" r="8" fill="#059669"/>
<circle cx="518.0" cy="535.0" r="8" fill="#f3f4f6" stroke="#e5e7eb" stroke-width="1"/>
<path d="M 518.0,527.0 A 8,8 0 0,0 518.0,543.0 Z" fill="#d97706"/>
<circle cx="518.0" cy="535.0" r="8" fill="none" stroke="#d97706" stroke-width="1.5"/>
<circle cx="589.0" cy="535.0" r="8" fill="#059669"/>
<circle cx="660.0" cy="535.0" r="8" fill="#059669"/>
<text x="737.0" y="536.0" fill="#d97706" font-size="9" font-weight="600" text-anchor="middle" dominant-baseline="middle">Docs</text>
<text x="827.0" y="536.0" fill="#6b7280" font-size="8" text-anchor="middle" dominant-baseline="middle">Pending Review</text>
<text x="14" y="570.0" fill="#111827" font-size="10" font-weight="500">nono</text>
<circle cx="234.0" cy="566.0" r="8" fill="#059669"/>
<circle cx="305.0" cy="566.0" r="8" fill="#059669"/>
<circle cx="365.0" cy="564.0" r="6" fill="#059669"/>
<text x="365.0" y="578.0" fill="#6b7280" font-size="7" text-anchor="middle">L</text>
<circle cx="387.0" cy="564.0" r="6" fill="#059669"/>
<text x="387.0" y="578.0" fill="#6b7280" font-size="7" text-anchor="middle">R</text>
<circle cx="447.0" cy="566.0" r="8" fill="#059669"/>
<circle cx="518.0" cy="566.0" r="8" fill="#059669"/>
<circle cx="589.0" cy="566.0" r="8" fill="#f3f4f6" stroke="#e5e7eb" stroke-width="1"/>
<path d="M 589.0,558.0 A 8,8 0 0,0 589.0,574.0 Z" fill="#d97706"/>
<circle cx="589.0" cy="566.0" r="8" fill="none" stroke="#d97706" stroke-width="1.5"/>
<circle cx="660.0" cy="566.0" r="8" fill="#f3f4f6" stroke="#e5e7eb" stroke-width="1"/>
<path d="M 660.0,558.0 A 8,8 0 0,0 660.0,574.0 Z" fill="#d97706"/>
<circle cx="660.0" cy="566.0" r="8" fill="none" stroke="#d97706" stroke-width="1.5"/>
<text x="737.0" y="567.0" fill="#d97706" font-size="9" font-weight="600" text-anchor="middle" dominant-baseline="middle">Docs</text>
<text x="827.0" y="567.0" fill="#6b7280" font-size="8" text-anchor="middle" dominant-baseline="middle">Pending Review</text>
<text x="14" y="601.0" fill="#111827" font-size="10" font-weight="500">Ona</text>
<circle cx="234.0" cy="597.0" r="8" fill="#059669"/>
<circle cx="305.0" cy="597.0" r="8" fill="#059669"/>
<circle cx="365.0" cy="595.0" r="6" fill="#059669"/>
<text x="365.0" y="609.0" fill="#6b7280" font-size="7" text-anchor="middle">L</text>
<circle cx="387.0" cy="595.0" r="6" fill="#059669"/>
<text x="387.0" y="609.0" fill="#6b7280" font-size="7" text-anchor="middle">R</text>
<circle cx="447.0" cy="597.0" r="8" fill="#059669"/>
<circle cx="518.0" cy="597.0" r="8" fill="#059669"/>
<circle cx="589.0" cy="597.0" r="8" fill="#059669"/>
<circle cx="660.0" cy="597.0" r="8" fill="#059669"/>
<text x="737.0" y="598.0" fill="#d97706" font-size="9" font-weight="600" text-anchor="middle" dominant-baseline="middle">Docs</text>
<text x="827.0" y="598.0" fill="#6b7280" font-size="8" text-anchor="middle" dominant-baseline="middle">2026-03-07</text>
<text x="14" y="632.0" fill="#111827" font-size="10" font-weight="500">packnplay</text>
<circle cx="234.0" cy="628.0" r="8" fill="#f3f4f6" stroke="#e5e7eb" stroke-width="1"/>
<path d="M 234.0,620.0 A 8,8 0 0,0 234.0,636.0 Z" fill="#d97706"/>
<circle cx="234.0" cy="628.0" r="8" fill="none" stroke="#d97706" stroke-width="1.5"/>
<circle cx="305.0" cy="628.0" r="8" fill="#f3f4f6" stroke="#e5e7eb" stroke-width="1"/>
<path d="M 305.0,620.0 A 8,8 0 0,0 305.0,636.0 Z" fill="#d97706"/>
<circle cx="305.0" cy="628.0" r="8" fill="none" stroke="#d97706" stroke-width="1.5"/>
<circle cx="365.0" cy="626.0" r="6" fill="#059669"/>
<text x="365.0" y="640.0" fill="#6b7280" font-size="7" text-anchor="middle">L</text>
<circle cx="387.0" cy="626.0" r="6" fill="#f3f4f6" stroke="#e5e7eb" stroke-width="1"/>
<text x="387.0" y="640.0" fill="#6b7280" font-size="7" text-anchor="middle">R</text>
<circle cx="447.0" cy="628.0" r="8" fill="#f3f4f6" stroke="#e5e7eb" stroke-width="1"/>
<path d="M 447.0,620.0 A 8,8 0 0,0 447.0,636.0 Z" fill="#d97706"/>
<circle cx="447.0" cy="628.0" r="8" fill="none" stroke="#d97706" stroke-width="1.5"/>
<circle cx="518.0" cy="628.0" r="8" fill="#f3f4f6" stroke="#e5e7eb" stroke-width="1"/>
<path d="M 518.0,620.0 A 8,8 0 0,0 518.0,636.0 Z" fill="#d97706"/>
<circle cx="518.0" cy="628.0" r="8" fill="none" stroke="#d97706" stroke-width="1.5"/>
<circle cx="589.0" cy="628.0" r="8" fill="#f3f4f6" stroke="#e5e7eb" stroke-width="1"/>
<path d="M 589.0,620.0 A 8,8 0 0,0 589.0,636.0 Z" fill="#d97706"/>
<circle cx="589.0" cy="628.0" r="8" fill="none" stroke="#d97706" stroke-width="1.5"/>
<circle cx="660.0" cy="628.0" r="8" fill="#f3f4f6" stroke="#e5e7eb" stroke-width="1"/>
<path d="M 660.0,620.0 A 8,8 0 0,0 660.0,636.0 Z" fill="#d97706"/>
<circle cx="660.0" cy="628.0" r="8" fill="none" stroke="#d97706" stroke-width="1.5"/>
<text x="737.0" y="629.0" fill="#d97706" font-size="9" font-weight="600" text-anchor="middle" dominant-baseline="middle">Docs</text>
<text x="827.0" y="629.0" fill="#6b7280" font-size="8" text-anchor="middle" dominant-baseline="middle">Pending Review</text>
<text x="14" y="663.0" fill="#111827" font-size="10" font-weight="500">Replit</text>
<circle cx="234.0" cy="659.0" r="8" fill="#059669"/>
<circle cx="305.0" cy="659.0" r="8" fill="#059669"/>
<circle cx="365.0" cy="657.0" r="6" fill="#059669"/>
<text x="365.0" y="671.0" fill="#6b7280" font-size="7" text-anchor="middle">L</text>
<circle cx="387.0" cy="657.0" r="6" fill="#f3f4f6" stroke="#e5e7eb" stroke-width="1"/>
<path d="M 387.0,651.0 A 6,6 0 0,0 387.0,663.0 Z" fill="#d97706"/>
<circle cx="387.0" cy="657.0" r="6" fill="none" stroke="#d97706" stroke-width="1.5"/>
<text x="387.0" y="671.0" fill="#6b7280" font-size="7" text-anchor="middle">R</text>
<circle cx="447.0" cy="659.0" r="8" fill="#059669"/>
<circle cx="518.0" cy="659.0" r="8" fill="#f3f4f6" stroke="#e5e7eb" stroke-width="1"/>
<path d="M 518.0,651.0 A 8,8 0 0,0 518.0,667.0 Z" fill="#d97706"/>
<circle cx="518.0" cy="659.0" r="8" fill="none" stroke="#d97706" stroke-width="1.5"/>
<circle cx="589.0" cy="659.0" r="8" fill="#f3f4f6" stroke="#e5e7eb" stroke-width="1"/>
<path d="M 589.0,651.0 A 8,8 0 0,0 589.0,667.0 Z" fill="#d97706"/>
<circle cx="589.0" cy="659.0" r="8" fill="none" stroke="#d97706" stroke-width="1.5"/>
<circle cx="660.0" cy="659.0" r="8" fill="#059669"/>
<text x="737.0" y="660.0" fill="#d97706" font-size="9" font-weight="600" text-anchor="middle" dominant-baseline="middle">Docs</text>
<text x="827.0" y="660.0" fill="#6b7280" font-size="8" text-anchor="middle" dominant-baseline="middle">Pending Review</text>
<text x="14" y="694.0" fill="#111827" font-size="10" font-weight="500">Stakpak Warden</text>
<circle cx="234.0" cy="690.0" r="8" fill="#059669"/>
<circle cx="305.0" cy="690.0" r="8" fill="#059669"/>
<circle cx="365.0" cy="688.0" r="6" fill="#059669"/>
<text x="365.0" y="702.0" fill="#6b7280" font-size="7" text-anchor="middle">L</text>
<circle cx="387.0" cy="688.0" r="6" fill="#059669"/>
<text x="387.0" y="702.0" fill="#6b7280" font-size="7" text-anchor="middle">R</text>
<circle cx="447.0" cy="690.0" r="8" fill="#059669"/>
<circle cx="518.0" cy="690.0" r="8" fill="#059669"/>
<circle cx="589.0" cy="690.0" r="8" fill="#f3f4f6" stroke="#e5e7eb" stroke-width="1"/>
<path d="M 589.0,682.0 A 8,8 0 0,0 589.0,698.0 Z" fill="#d97706"/>
<circle cx="589.0" cy="690.0" r="8" fill="none" stroke="#d97706" stroke-width="1.5"/>
<circle cx="660.0" cy="690.0" r="8" fill="#f3f4f6" stroke="#e5e7eb" stroke-width="1"/>
<path d="M 660.0,682.0 A 8,8 0 0,0 660.0,698.0 Z" fill="#d97706"/>
<circle cx="660.0" cy="690.0" r="8" fill="none" stroke="#d97706" stroke-width="1.5"/>
<text x="737.0" y="691.0" fill="#d97706" font-size="9" font-weight="600" text-anchor="middle" dominant-baseline="middle">Docs</text>
<text x="827.0" y="691.0" fill="#6b7280" font-size="8" text-anchor="middle" dominant-baseline="middle">Pending Review</text>
<text x="14" y="725.0" fill="#111827" font-size="10" font-weight="500">StrongDM Leash</text>
<circle cx="234.0" cy="721.0" r="8" fill="#f3f4f6" stroke="#e5e7eb" stroke-width="1"/>
<path d="M 234.0,713.0 A 8,8 0 0,0 234.0,729.0 Z" fill="#d97706"/>
<circle cx="234.0" cy="721.0" r="8" fill="none" stroke="#d97706" stroke-width="1.5"/>
<circle cx="305.0" cy="721.0" r="8" fill="#059669"/>
<circle cx="365.0" cy="719.0" r="6" fill="#059669"/>
<text x="365.0" y="733.0" fill="#6b7280" font-size="7" text-anchor="middle">L</text>
<circle cx="387.0" cy="719.0" r="6" fill="#059669"/>
<text x="387.0" y="733.0" fill="#6b7280" font-size="7" text-anchor="middle">R</text>
<circle cx="447.0" cy="721.0" r="8" fill="#059669"/>
<circle cx="518.0" cy="721.0" r="8" fill="#059669"/>
<circle cx="589.0" cy="721.0" r="8" fill="#f3f4f6" stroke="#e5e7eb" stroke-width="1"/>
<path d="M 589.0,713.0 A 8,8 0 0,0 589.0,729.0 Z" fill="#d97706"/>
<circle cx="589.0" cy="721.0" r="8" fill="none" stroke="#d97706" stroke-width="1.5"/>
<circle cx="660.0" cy="721.0" r="8" fill="#f3f4f6" stroke="#e5e7eb" stroke-width="1"/>
<path d="M 660.0,713.0 A 8,8 0 0,0 660.0,729.0 Z" fill="#d97706"/>
<circle cx="660.0" cy="721.0" r="8" fill="none" stroke="#d97706" stroke-width="1.5"/>
<text x="737.0" y="722.0" fill="#d97706" font-size="9" font-weight="600" text-anchor="middle" dominant-baseline="middle">Docs</text>
<text x="827.0" y="722.0" fill="#6b7280" font-size="8" text-anchor="middle" dominant-baseline="middle">Pending Review</text>
<text x="14" y="756.0" fill="#111827" font-size="10" font-weight="500">Unikraft Cloud</text>
<circle cx="234.0" cy="752.0" r="8" fill="#f3f4f6" stroke="#e5e7eb" stroke-width="1"/>
<path d="M 234.0,744.0 A 8,8 0 0,0 234.0,760.0 Z" fill="#d97706"/>
<circle cx="234.0" cy="752.0" r="8" fill="none" stroke="#d97706" stroke-width="1.5"/>
<circle cx="305.0" cy="752.0" r="8" fill="#f3f4f6" stroke="#e5e7eb" stroke-width="1"/>
<path d="M 305.0,744.0 A 8,8 0 0,0 305.0,760.0 Z" fill="#d97706"/>
<circle cx="305.0" cy="752.0" r="8" fill="none" stroke="#d97706" stroke-width="1.5"/>
<circle cx="365.0" cy="750.0" r="6" fill="#059669"/>
<text x="365.0" y="764.0" fill="#6b7280" font-size="7" text-anchor="middle">L</text>
<circle cx="387.0" cy="750.0" r="6" fill="#f3f4f6" stroke="#e5e7eb" stroke-width="1"/>
<text x="387.0" y="764.0" fill="#6b7280" font-size="7" text-anchor="middle">R</text>
<circle cx="447.0" cy="752.0" r="8" fill="#f3f4f6" stroke="#e5e7eb" stroke-width="1"/>
<path d="M 447.0,744.0 A 8,8 0 0,0 447.0,760.0 Z" fill="#d97706"/>
<circle cx="447.0" cy="752.0" r="8" fill="none" stroke="#d97706" stroke-width="1.5"/>
<circle cx="518.0" cy="752.0" r="8" fill="#f3f4f6" stroke="#e5e7eb" stroke-width="1"/>
<path d="M 518.0,744.0 A 8,8 0 0,0 518.0,760.0 Z" fill="#d97706"/>
<circle cx="518.0" cy="752.0" r="8" fill="none" stroke="#d97706" stroke-width="1.5"/>
<circle cx="589.0" cy="752.0" r="8" fill="#059669"/>
<circle cx="660.0" cy="752.0" r="8" fill="#059669"/>
<text x="737.0" y="753.0" fill="#d97706" font-size="9" font-weight="600" text-anchor="middle" dominant-baseline="middle">Docs</text>
<text x="827.0" y="753.0" fill="#6b7280" font-size="8" text-anchor="middle" dominant-baseline="middle">Pending Review</text>
<text x="10" y="783" fill="#6b7280" font-size="9" font-weight="600" letter-spacing="1">COVERAGE</text>
<circle cx="87" cy="779" r="6" fill="#059669"/>
<text x="99" y="783" fill="#6b7280" font-size="9">Addressed</text>
<circle cx="177" cy="779" r="6" fill="#f3f4f6" stroke="#e5e7eb" stroke-width="1"/>
<path d="M 177,773 A 6,6 0 0,0 177,785 Z" fill="#d97706"/>
<circle cx="177" cy="779" r="6" fill="none" stroke="#d97706" stroke-width="1.5"/>
<text x="189" y="783" fill="#6b7280" font-size="9">Partial</text>
<circle cx="255" cy="779" r="6" fill="#f3f4f6" stroke="#e5e7eb" stroke-width="1"/>
<text x="267" y="783" fill="#6b7280" font-size="9">Not addressed</text>
<text x="10" y="801" fill="#6b7280" font-size="8">T3: L = Local (L1+L3) · R = Remote (L4+L6) — combined T3 rating uses the lower of the two</text>
</svg>